<?xml version="1.0" encoding="utf-8"?>
<!-- Generator: Adobe Illustrator 16.0.0, SVG Export Plug-In . SVG Version: 6.00 Build 0)  -->
<!DOCTYPE svg PUBLIC "-//W3C//DTD SVG 1.1//EN" "http://www.w3.org/Graphics/SVG/1.1/DTD/svg11.dtd">
<svg version="1.1" id="Layer_1" xmlns="http://www.w3.org/2000/svg" xmlns:xlink="http://www.w3.org/1999/xlink" x="0px" y="0px"
	 width="503.711px" height="492px" viewBox="0 0 503.711 492" enable-background="new 0 0 503.711 492" xml:space="preserve">
<polygon fill="#26530D" points="480.342,1 503.711,14.492 503.711,1 "/>
<polygon fill="#285E06" points="479.725,1 479.725,28.341 503.711,14.492 480.342,1 "/>
<polygon fill="#2C6408" points="503.711,42.189 479.725,28.341 503.711,14.492 "/>
<polygon fill="#316E07" points="479.725,28.341 503.711,42.189 479.725,56.037 "/>
<polygon fill="#347408" points="503.711,69.886 479.725,56.037 503.711,42.189 "/>
<polygon fill="#3F800C" points="479.725,56.037 503.711,69.886 479.725,83.734 "/>
<polygon fill="#43860E" points="503.711,97.583 479.725,83.734 503.711,69.886 "/>
<polygon fill="#579B19" points="479.725,83.734 503.711,97.583 479.725,111.431 "/>
<polygon fill="#5DA019" points="503.711,125.279 479.725,111.431 503.711,97.583 "/>
<polygon fill="#71B021" points="479.725,111.431 503.711,125.279 479.725,139.127 "/>
<polygon fill="#73B422" points="503.711,152.976 479.725,139.127 503.711,125.279 "/>
<polygon fill="#78B923" points="479.725,139.127 503.711,152.976 479.725,166.824 "/>
<polygon fill="#7FBF26" points="503.711,180.672 479.725,166.824 503.711,152.976 "/>
<polygon fill="#A4D644" points="479.725,166.824 503.711,180.672 479.725,194.521 "/>
<polygon fill="#9ED33D" points="503.711,208.369 479.725,194.521 503.711,180.672 "/>
<polygon fill="#B1E158" points="479.725,194.521 503.711,208.369 479.725,222.217 "/>
<polygon fill="#A7DC44" points="503.711,236.066 479.725,222.217 503.711,208.369 "/>
<polygon fill="#ADE053" points="479.725,222.217 503.711,236.066 479.725,249.914 "/>
<polygon fill="#A8DE4B" points="503.711,263.764 479.725,249.914 503.711,236.066 "/>
<polygon fill="#C8EA87" points="479.725,249.914 503.711,263.764 479.725,277.611 "/>
<polygon fill="#CBEE8D" points="503.711,291.459 479.725,277.611 503.711,263.764 "/>
<polygon fill="#D5F3A7" points="479.725,277.611 503.711,291.459 479.725,305.309 "/>
<polygon fill="#D9F3B0" points="503.711,319.156 479.725,305.309 503.711,291.459 "/>
<polygon fill="#E1F4C0" points="479.725,305.309 503.711,319.156 479.725,333.004 "/>
<polygon fill="#E3F7C7" points="503.711,346.854 479.725,333.004 503.711,319.156 "/>
<polygon fill="#ECFBDC" points="479.725,333.004 503.711,346.854 479.725,360.701 "/>
<polygon fill="#EAF8D9" points="503.711,374.549 479.725,360.701 503.711,346.854 "/>
<polygon fill="#EDF8DF" points="479.725,360.701 503.711,374.549 479.725,388.396 "/>
<polygon fill="#EFFBE2" points="503.711,402.246 479.725,388.396 503.711,374.549 "/>
<polygon fill="#245B02" points="455.741,1 455.741,14.492 479.11,1 "/>
<polygon fill="#296307" points="479.11,1 455.741,14.492 479.725,28.341 479.725,1 "/>
<polygon fill="#336D0A" points="455.741,14.492 479.725,28.341 455.741,42.189 "/>
<polygon fill="#347209" points="479.725,56.037 455.741,42.189 479.725,28.341 "/>
<polygon fill="#3E7C0D" points="455.741,42.189 479.725,56.037 455.741,69.886 "/>
<polygon fill="#488611" points="479.725,83.734 455.741,69.886 479.725,56.037 "/>
<polygon fill="#599519" points="455.741,69.886 479.725,83.734 455.741,97.583 "/>
<polygon fill="#68A422" points="479.725,111.431 455.741,97.583 479.725,83.734 "/>
<polygon fill="#84BD34" points="455.741,97.583 479.725,111.431 455.741,125.279 "/>
<polygon fill="#85C130" points="479.725,139.127 455.741,125.279 479.725,111.431 "/>
<polygon fill="#97CB3E" points="455.741,125.279 479.725,139.127 455.741,152.976 "/>
<polygon fill="#8CC631" points="479.725,166.824 455.741,152.976 479.725,139.127 "/>
<polygon fill="#9AD03D" points="455.741,152.976 479.725,166.824 455.741,180.672 "/>
<polygon fill="#A8D94B" points="479.725,194.521 455.741,180.672 479.725,166.824 "/>
<polygon fill="#AAD94E" points="455.741,180.672 479.725,194.521 455.741,208.369 "/>
<polygon fill="#B4E25E" points="479.725,222.217 455.741,208.369 479.725,194.521 "/>
<polygon fill="#BCE672" points="455.741,208.369 479.725,222.217 455.741,236.066 "/>
<polygon fill="#C0E67A" points="479.725,249.914 455.741,236.066 479.725,222.217 "/>
<polygon fill="#CEED97" points="455.741,236.066 479.725,249.914 455.741,263.764 "/>
<polygon fill="#CBEB95" points="479.725,277.611 455.741,263.764 479.725,249.914 "/>
<polygon fill="#DBF2B2" points="455.741,263.764 479.725,277.611 455.741,291.459 "/>
<polygon fill="#E2F6C4" points="479.725,305.309 455.741,291.459 479.725,277.611 "/>
<polygon fill="#E8F7D2" points="455.741,291.459 479.725,305.309 455.741,319.156 "/>
<polygon fill="#EDF9DE" points="479.725,333.004 455.741,319.156 479.725,305.309 "/>
<polygon fill="#F3FDEB" points="455.741,319.156 479.725,333.004 455.741,346.854 "/>
<polygon fill="#F4FEEB" points="479.725,360.701 455.741,346.854 479.725,333.004 "/>
<polygon fill="#F1FCE8" points="455.741,346.854 479.725,360.701 455.741,374.549 "/>
<polygon fill="#EFFAE4" points="479.725,388.396 455.741,374.549 479.725,360.701 "/>
<polygon fill="#286105" points="432.372,1 455.741,14.492 455.741,1 "/>
<polygon fill="#2E6805" points="431.752,1 431.752,28.341 455.741,14.492 432.372,1 "/>
<polygon fill="#36700C" points="455.741,42.189 431.752,28.341 455.741,14.492 "/>
<polygon fill="#407C0D" points="431.752,28.341 455.741,42.189 431.752,56.037 "/>
<polygon fill="#448311" points="455.741,69.886 431.752,56.037 455.741,42.189 "/>
<polygon fill="#508D13" points="431.752,56.037 455.741,69.886 431.752,83.734 "/>
<polygon fill="#629E1F" points="455.741,97.583 431.752,83.734 455.741,69.886 "/>
<polygon fill="#76B228" points="431.752,83.734 455.741,97.583 431.752,111.431 "/>
<polygon fill="#9ACE46" points="455.741,125.279 431.752,111.431 455.741,97.583 "/>
<polygon fill="#B1DE5F" points="431.752,111.431 455.741,125.279 431.752,139.127 "/>
<polygon fill="#B2DE5E" points="455.741,152.976 431.752,139.127 455.741,125.279 "/>
<polygon fill="#B9E064" points="431.752,139.127 455.741,152.976 431.752,166.824 "/>
<polygon fill="#B6DE5F" points="455.741,180.672 431.752,166.824 455.741,152.976 "/>
<polygon fill="#B5DD63" points="431.752,166.824 455.741,180.672 431.752,194.521 "/>
<polygon fill="#C0E674" points="455.741,208.369 431.752,194.521 455.741,180.672 "/>
<polygon fill="#C3E481" points="431.752,194.521 455.741,208.369 431.752,222.217 "/>
<polygon fill="#C7E98B" points="455.741,236.066 431.752,222.217 455.741,208.369 "/>
<polygon fill="#D8EEAB" points="431.752,222.217 455.741,236.066 431.752,249.914 "/>
<polygon fill="#DEF5B6" points="455.741,263.764 431.752,249.914 455.741,236.066 "/>
<polygon fill="#E7F7CD" points="431.752,249.914 455.741,263.764 431.752,277.611 "/>
<polygon fill="#E6F7CB" points="455.741,291.459 431.752,277.611 455.741,263.764 "/>
<polygon fill="#ECF9DD" points="431.752,277.611 455.741,291.459 431.752,305.309 "/>
<polygon fill="#ECF8DC" points="455.741,319.156 431.752,305.309 455.741,291.459 "/>
<polygon fill="#EDF8DF" points="431.752,305.309 455.741,319.156 431.752,333.004 "/>
<polygon fill="#F3FDEA" points="455.741,346.854 431.752,333.004 455.741,319.156 "/>
<polygon fill="#F3FCEA" points="431.752,333.004 455.741,346.854 431.752,360.701 "/>
<polygon fill="#EEFAE1" points="455.741,374.549 431.752,360.701 455.741,346.854 "/>
<polygon fill="#356E09" points="407.766,1 407.766,14.492 431.135,1 "/>
<polygon fill="#37710A" points="431.135,1 407.766,14.492 431.752,28.341 431.752,1 "/>
<polygon fill="#407E0E" points="407.766,14.492 431.752,28.341 407.766,42.189 "/>
<polygon fill="#498611" points="431.752,56.037 407.766,42.189 431.752,28.341 "/>
<polygon fill="#659C23" points="407.766,42.189 431.752,56.037 407.766,69.886 "/>
<polygon fill="#6DA628" points="431.752,83.734 407.766,69.886 431.752,56.037 "/>
<polygon fill="#79B32C" points="407.766,69.886 431.752,83.734 407.766,97.583 "/>
<polygon fill="#86BE31" points="431.752,111.431 407.766,97.583 431.752,83.734 "/>
<polygon fill="#9ACC42" points="407.766,97.583 431.752,111.431 407.766,125.279 "/>
<polygon fill="#B0DB5F" points="431.752,139.127 407.766,125.279 431.752,111.431 "/>
<polygon fill="#ABD654" points="407.766,125.279 431.752,139.127 407.766,152.976 "/>
<polygon fill="#C3E77D" points="431.752,166.824 407.766,152.976 431.752,139.127 "/>
<polygon fill="#B9E06C" points="407.766,152.976 431.752,166.824 407.766,180.672 "/>
<polygon fill="#B6E066" points="431.752,194.521 407.766,180.672 431.752,166.824 "/>
<polygon fill="#D5EEA6" points="407.766,180.672 431.752,194.521 407.766,208.369 "/>
<polygon fill="#DAF4B4" points="431.752,222.217 407.766,208.369 431.752,194.521 "/>
<polygon fill="#E6F7CC" points="407.766,208.369 431.752,222.217 407.766,236.066 "/>
<polygon fill="#DDF2B5" points="431.752,249.914 407.766,236.066 431.752,222.217 "/>
<polygon fill="#DBF2B6" points="407.766,236.066 431.752,249.914 407.766,263.764 "/>
<polygon fill="#E6F6CE" points="431.752,277.611 407.766,263.764 431.752,249.914 "/>
<polygon fill="#E2F7C7" points="407.766,263.764 431.752,277.611 407.766,291.459 "/>
<polygon fill="#E6F7D2" points="431.752,305.309 407.766,291.459 431.752,277.611 "/>
<polygon fill="#EAF7D8" points="407.766,291.459 431.752,305.309 407.766,319.156 "/>
<polygon fill="#EEF9E1" points="431.752,333.004 407.766,319.156 431.752,305.309 "/>
<polygon fill="#F3F9EA" points="407.766,319.156 431.752,333.004 407.766,346.854 "/>
<polygon fill="#F6FBF0" points="431.752,360.701 407.766,346.854 431.752,333.004 "/>
<polygon fill="#3A790C" points="384.399,1 407.766,14.492 407.766,1 "/>
<polygon fill="#4A8B12" points="383.782,1 383.782,28.341 407.766,14.492 384.399,1 "/>
<polygon fill="#478711" points="407.766,42.189 383.782,28.341 407.766,14.492 "/>
<polygon fill="#528F17" points="383.782,28.341 407.766,42.189 383.782,56.037 "/>
<polygon fill="#5B971A" points="407.766,69.886 383.782,56.037 407.766,42.189 "/>
<polygon fill="#6AA422" points="383.782,56.037 407.766,69.886 383.782,83.734 "/>
<polygon fill="#79B02A" points="407.766,97.583 383.782,83.734 407.766,69.886 "/>
<polygon fill="#A5CE54" points="383.782,83.734 407.766,97.583 383.782,111.431 "/>
<polygon fill="#98C841" points="407.766,125.279 383.782,111.431 407.766,97.583 "/>
<polygon fill="#A0D049" points="383.782,111.431 407.766,125.279 383.782,139.127 "/>
<polygon fill="#A7D44E" points="407.766,152.976 383.782,139.127 407.766,125.279 "/>
<polygon fill="#BCE070" points="383.782,139.127 407.766,152.976 383.782,166.824 "/>
<polygon fill="#BEE278" points="407.766,180.672 383.782,166.824 407.766,152.976 "/>
<polygon fill="#D0EBA0" points="383.782,166.824 407.766,180.672 383.782,194.521 "/>
<polygon fill="#E3F5C4" points="407.766,208.369 383.782,194.521 407.766,180.672 "/>
<polygon fill="#E2F3C3" points="383.782,194.521 407.766,208.369 383.782,222.217 "/>
<polygon fill="#E8F7CE" points="407.766,236.066 383.782,222.217 407.766,208.369 "/>
<polygon fill="#E5F7C9" points="383.782,222.217 407.766,236.066 383.782,249.914 "/>
<polygon fill="#E1F3C3" points="407.766,263.764 383.782,249.914 407.766,236.066 "/>
<polygon fill="#E7F5D5" points="383.782,249.914 407.766,263.764 383.782,277.611 "/>
<polygon fill="#E8F7D3" points="407.766,291.459 383.782,277.611 407.766,263.764 "/>
<polygon fill="#EEF8E1" points="383.782,277.611 407.766,291.459 383.782,305.309 "/>
<polygon fill="#F1FBE7" points="407.766,319.156 383.782,305.309 407.766,291.459 "/>
<polygon fill="#F3FBEA" points="383.782,305.309 407.766,319.156 383.782,333.004 "/>
<polygon fill="#EEF8E1" points="407.766,346.854 383.782,333.004 407.766,319.156 "/>
<polygon fill="#3B790B" points="359.793,1 359.793,14.492 383.165,1 "/>
<polygon fill="#4C8D13" points="383.165,1 359.793,14.492 383.782,28.341 383.782,1 "/>
<polygon fill="#508F15" points="359.793,14.492 383.782,28.341 359.793,42.189 "/>
<polygon fill="#569318" points="383.782,56.037 359.793,42.189 383.782,28.341 "/>
<polygon fill="#639E21" points="359.793,42.189 383.782,56.037 359.793,69.886 "/>
<polygon fill="#6FA926" points="383.782,83.734 359.793,69.886 383.782,56.037 "/>
<polygon fill="#82B931" points="359.793,69.886 383.782,83.734 359.793,97.583 "/>
<polygon fill="#9DCD49" points="383.782,111.431 359.793,97.583 383.782,83.734 "/>
<polygon fill="#ABD55B" points="359.793,97.583 383.782,111.431 359.793,125.279 "/>
<polygon fill="#AED75D" points="383.782,139.127 359.793,125.279 383.782,111.431 "/>
<polygon fill="#C1E181" points="359.793,125.279 383.782,139.127 359.793,152.976 "/>
<polygon fill="#CCE996" points="383.782,166.824 359.793,152.976 383.782,139.127 "/>
<polygon fill="#D2EAA7" points="359.793,152.976 383.782,166.824 359.793,180.672 "/>
<polygon fill="#C7E48D" points="383.782,194.521 359.793,180.672 383.782,166.824 "/>
<polygon fill="#CDE99C" points="359.793,180.672 383.782,194.521 359.793,208.369 "/>
<polygon fill="#DDF5BB" points="383.782,222.217 359.793,208.369 383.782,194.521 "/>
<polygon fill="#DCF1BA" points="359.793,208.369 383.782,222.217 359.793,236.066 "/>
<polygon fill="#E5F4CA" points="383.782,249.914 359.793,236.066 383.782,222.217 "/>
<polygon fill="#E9F6D7" points="359.793,236.066 383.782,249.914 359.793,263.764 "/>
<polygon fill="#EDF8DF" points="383.782,277.611 359.793,263.764 383.782,249.914 "/>
<polygon fill="#F3FAEC" points="359.793,263.764 383.782,277.611 359.793,291.459 "/>
<polygon fill="#F5FDEF" points="383.782,305.309 359.793,291.459 383.782,277.611 "/>
<polygon fill="#F7FDF2" points="359.793,291.459 383.782,305.309 359.793,319.156 "/>
<polygon fill="#F4FAEB" points="383.782,333.004 359.793,319.156 383.782,305.309 "/>
<polygon fill="#3D7A0D" points="336.424,1 359.793,14.492 359.793,1 "/>
<polygon fill="#458412" points="335.807,1 335.807,28.341 359.793,14.492 336.424,1 "/>
<polygon fill="#4F8D16" points="359.793,42.189 335.807,28.341 359.793,14.492 "/>
<polygon fill="#6BA524" points="335.807,28.341 359.793,42.189 335.807,56.037 "/>
<polygon fill="#71A929" points="359.793,69.886 335.807,56.037 359.793,42.189 "/>
<polygon fill="#7DB230" points="335.807,56.037 359.793,69.886 335.807,83.734 "/>
<polygon fill="#84B835" points="359.793,97.583 335.807,83.734 359.793,69.886 "/>
<polygon fill="#9CC94C" points="335.807,83.734 359.793,97.583 335.807,111.431 "/>
<polygon fill="#AAD261" points="359.793,125.279 335.807,111.431 359.793,97.583 "/>
<polygon fill="#AED664" points="335.807,111.431 359.793,125.279 335.807,139.127 "/>
<polygon fill="#B7DC71" points="359.793,152.976 335.807,139.127 359.793,125.279 "/>
<polygon fill="#B7DC6E" points="335.807,139.127 359.793,152.976 335.807,166.824 "/>
<polygon fill="#BBE075" points="359.793,180.672 335.807,166.824 359.793,152.976 "/>
<polygon fill="#CDEA9C" points="335.807,166.824 359.793,180.672 335.807,194.521 "/>
<polygon fill="#D3EDA7" points="359.793,208.369 335.807,194.521 359.793,180.672 "/>
<polygon fill="#DAEFAF" points="335.807,194.521 359.793,208.369 335.807,222.217 "/>
<polygon fill="#DEF0BF" points="359.793,236.066 335.807,222.217 359.793,208.369 "/>
<polygon fill="#E0F1C1" points="335.807,222.217 359.793,236.066 335.807,249.914 "/>
<polygon fill="#DCF0B9" points="359.793,263.764 335.807,249.914 359.793,236.066 "/>
<polygon fill="#E5F5D1" points="335.807,249.914 359.793,263.764 335.807,277.611 "/>
<polygon fill="#F1F9E6" points="359.793,291.459 335.807,277.611 359.793,263.764 "/>
<polygon fill="#F4FBEF" points="335.807,277.611 359.793,291.459 335.807,305.309 "/>
<polygon fill="#F8FDF5" points="359.793,319.156 335.807,305.309 359.793,291.459 "/>
<polygon fill="#F4FBF1" points="335.807,305.309 359.793,319.156 335.807,333.004 "/>
<polygon fill="#43800F" points="311.823,1 311.823,14.492 335.192,1 "/>
<polygon fill="#478411" points="335.192,1 311.823,14.492 335.807,28.341 335.807,1 "/>
<polygon fill="#57931A" points="311.823,14.492 335.807,28.341 311.823,42.189 "/>
<polygon fill="#6BA525" points="335.807,56.037 311.823,42.189 335.807,28.341 "/>
<polygon fill="#6EA628" points="311.823,42.189 335.807,56.037 311.823,69.886 "/>
<polygon fill="#79AF2F" points="335.807,83.734 311.823,69.886 335.807,56.037 "/>
<polygon fill="#82B336" points="311.823,69.886 335.807,83.734 311.823,97.583 "/>
<polygon fill="#91BD43" points="335.807,111.431 311.823,97.583 335.807,83.734 "/>
<polygon fill="#A1CB53" points="311.823,97.583 335.807,111.431 311.823,125.279 "/>
<polygon fill="#ACD560" points="335.807,139.127 311.823,125.279 335.807,111.431 "/>
<polygon fill="#C0E27A" points="311.823,125.279 335.807,139.127 311.823,152.976 "/>
<polygon fill="#BEE17C" points="335.807,166.824 311.823,152.976 335.807,139.127 "/>
<polygon fill="#CCE797" points="311.823,152.976 335.807,166.824 311.823,180.672 "/>
<polygon fill="#D9F0AF" points="335.807,194.521 311.823,180.672 335.807,166.824 "/>
<polygon fill="#DCF1B5" points="311.823,180.672 335.807,194.521 311.823,208.369 "/>
<polygon fill="#DBF2B4" points="335.807,222.217 311.823,208.369 335.807,194.521 "/>
<polygon fill="#E5F5CC" points="311.823,208.369 335.807,222.217 311.823,236.066 "/>
<polygon fill="#ECF7DA" points="335.807,249.914 311.823,236.066 335.807,222.217 "/>
<polygon fill="#F3FBE9" points="311.823,236.066 335.807,249.914 311.823,263.764 "/>
<polygon fill="#F2F9E9" points="335.807,277.611 311.823,263.764 335.807,249.914 "/>
<polygon fill="#F0F9E7" points="311.823,263.764 335.807,277.611 311.823,291.459 "/>
<polygon fill="#EFF8E4" points="335.807,305.309 311.823,291.459 335.807,277.611 "/>
<polygon fill="#EFF7E3" points="311.823,291.459 335.807,305.309 311.823,319.156 "/>
<polygon fill="#F3FAED" points="335.807,333.004 311.823,319.156 335.807,305.309 "/>
<polygon fill="#448010" points="288.454,1 311.823,14.492 311.823,1 "/>
<polygon fill="#4C8813" points="287.834,1 287.834,28.341 311.823,14.492 288.454,1 "/>
<polygon fill="#59951B" points="311.823,42.189 287.834,28.341 311.823,14.492 "/>
<polygon fill="#71A72B" points="287.834,28.341 311.823,42.189 287.834,56.037 "/>
<polygon fill="#75AB2D" points="311.823,69.886 287.834,56.037 311.823,42.189 "/>
<polygon fill="#8EBE41" points="287.834,56.037 311.823,69.886 287.834,83.734 "/>
<polygon fill="#8EBF41" points="311.823,97.583 287.834,83.734 311.823,69.886 "/>
<polygon fill="#A7D159" points="287.834,83.734 311.823,97.583 287.834,111.431 "/>
<polygon fill="#ADD45E" points="311.823,125.279 287.834,111.431 311.823,97.583 "/>
<polygon fill="#BFE177" points="287.834,111.431 311.823,125.279 287.834,139.127 "/>
<polygon fill="#D0EC93" points="311.823,152.976 287.834,139.127 311.823,125.279 "/>
<polygon fill="#D2ED9D" points="287.834,139.127 311.823,152.976 287.834,166.824 "/>
<polygon fill="#E1F3BF" points="311.823,180.672 287.834,166.824 311.823,152.976 "/>
<polygon fill="#EDF9DA" points="287.834,166.824 311.823,180.672 287.834,194.521 "/>
<polygon fill="#EBF7D5" points="311.823,208.369 287.834,194.521 311.823,180.672 "/>
<polygon fill="#F0FBDF" points="287.834,194.521 311.823,208.369 287.834,222.217 "/>
<polygon fill="#EEF9DD" points="311.823,236.066 287.834,222.217 311.823,208.369 "/>
<polygon fill="#EFF9DD" points="287.834,222.217 311.823,236.066 287.834,249.914 "/>
<polygon fill="#F0FAE2" points="311.823,263.764 287.834,249.914 311.823,236.066 "/>
<polygon fill="#F3F9E9" points="287.834,249.914 311.823,263.764 287.834,277.611 "/>
<polygon fill="#F6FAF2" points="311.823,291.459 287.834,277.611 311.823,263.764 "/>
<polygon fill="#F7FCF5" points="287.834,277.611 311.823,291.459 287.834,305.309 "/>
<polygon fill="#F6FCF3" points="311.823,319.156 287.834,305.309 311.823,291.459 "/>
<polygon fill="#F8FCF6" points="287.834,305.309 311.823,319.156 287.834,333.004 "/>
<polygon fill="#488611" points="263.85,1 263.85,14.492 287.217,1 "/>
<polygon fill="#4F8D15" points="287.217,1 263.85,14.492 287.834,28.341 287.834,1 "/>
<polygon fill="#589619" points="263.85,14.492 287.834,28.341 263.85,42.189 "/>
<polygon fill="#72AB2A" points="287.834,56.037 263.85,42.189 287.834,28.341 "/>
<polygon fill="#86B937" points="263.85,42.189 287.834,56.037 263.85,69.886 "/>
<polygon fill="#9DCA4D" points="287.834,83.734 263.85,69.886 287.834,56.037 "/>
<polygon fill="#A7D058" points="263.85,69.886 287.834,83.734 263.85,97.583 "/>
<polygon fill="#A3CF56" points="287.834,111.431 263.85,97.583 287.834,83.734 "/>
<polygon fill="#B0D867" points="263.85,97.583 287.834,111.431 263.85,125.279 "/>
<polygon fill="#C3E486" points="287.834,139.127 263.85,125.279 287.834,111.431 "/>
<polygon fill="#D4EFA4" points="263.85,125.279 287.834,139.127 263.85,152.976 "/>
<polygon fill="#D1EB97" points="287.834,166.824 263.85,152.976 287.834,139.127 "/>
<polygon fill="#D8F2A7" points="263.85,152.976 287.834,166.824 263.85,180.672 "/>
<polygon fill="#E6F5C9" points="287.834,194.521 263.85,180.672 287.834,166.824 "/>
<polygon fill="#DDF1B4" points="263.85,180.672 287.834,194.521 263.85,208.369 "/>
<polygon fill="#E8F8CC" points="287.834,222.217 263.85,208.369 287.834,194.521 "/>
<polygon fill="#E9F9D0" points="263.85,208.369 287.834,222.217 263.85,236.066 "/>
<polygon fill="#F0FADF" points="287.834,249.914 263.85,236.066 287.834,222.217 "/>
<polygon fill="#F4FCEA" points="263.85,236.066 287.834,249.914 263.85,263.764 "/>
<polygon fill="#F3F9EA" points="287.834,277.611 263.85,263.764 287.834,249.914 "/>
<polygon fill="#F5FAF1" points="263.85,263.764 287.834,277.611 263.85,291.459 "/>
<polygon fill="#F7FCF4" points="287.834,305.309 263.85,291.459 287.834,277.611 "/>
<polygon fill="#F8FDF5" points="263.85,291.459 287.834,305.309 263.85,319.156 "/>
<polygon fill="#FAFDF7" points="287.834,333.004 263.85,319.156 287.834,305.309 "/>
<polygon fill="#4E8C15" points="240.479,1 263.85,14.492 263.85,1 "/>
<polygon fill="#59951A" points="239.863,1 239.863,28.341 263.85,14.492 240.479,1 "/>
<polygon fill="#639E1E" points="263.85,42.189 239.863,28.341 263.85,14.492 "/>
<polygon fill="#7BB32C" points="239.863,28.341 263.85,42.189 239.863,56.037 "/>
<polygon fill="#82B934" points="263.85,69.886 239.863,56.037 263.85,42.189 "/>
<polygon fill="#92C440" points="239.863,56.037 263.85,69.886 239.863,83.734 "/>
<polygon fill="#9FCC4E" points="263.85,97.583 239.863,83.734 263.85,69.886 "/>
<polygon fill="#B8DC70" points="239.863,83.734 263.85,97.583 239.863,111.431 "/>
<polygon fill="#C7E78A" points="263.85,125.279 239.863,111.431 263.85,97.583 "/>
<polygon fill="#CEEA9E" points="239.863,111.431 263.85,125.279 239.863,139.127 "/>
<polygon fill="#D3EE9B" points="263.85,152.976 239.863,139.127 263.85,125.279 "/>
<polygon fill="#C9EB85" points="239.863,139.127 263.85,152.976 239.863,166.824 "/>
<polygon fill="#CEEE8F" points="263.85,180.672 239.863,166.824 263.85,152.976 "/>
<polygon fill="#E2F4BD" points="239.863,166.824 263.85,180.672 239.863,194.521 "/>
<polygon fill="#DAF0AF" points="263.85,208.369 239.863,194.521 263.85,180.672 "/>
<polygon fill="#E3F4C4" points="239.863,194.521 263.85,208.369 239.863,222.217 "/>
<polygon fill="#E5F7CA" points="263.85,236.066 239.863,222.217 263.85,208.369 "/>
<polygon fill="#EBF9D7" points="239.863,222.217 263.85,236.066 239.863,249.914 "/>
<polygon fill="#F4FCE6" points="263.85,263.764 239.863,249.914 263.85,236.066 "/>
<polygon fill="#F8FBF4" points="239.863,249.914 263.85,263.764 239.863,277.611 "/>
<polygon fill="#F8FDF5" points="263.85,291.459 239.863,277.611 263.85,263.764 "/>
<polygon fill="#F9FDF5" points="239.863,277.611 263.85,291.459 239.863,305.309 "/>
<polygon fill="#F7FCF4" points="263.85,319.156 239.863,305.309 263.85,291.459 "/>
<polygon fill="#F8FCF5" points="239.863,305.309 263.85,319.156 239.863,333.004 "/>
<polygon fill="#559018" points="215.876,1 215.876,14.492 239.246,1 "/>
<polygon fill="#609B1A" points="239.246,1 215.876,14.492 239.863,28.341 239.863,1 "/>
<polygon fill="#65A120" points="215.876,14.492 239.863,28.341 215.876,42.189 "/>
<polygon fill="#81B832" points="239.863,56.037 215.876,42.189 239.863,28.341 "/>
<polygon fill="#ADD959" points="215.876,42.189 239.863,56.037 215.876,69.886 "/>
<polygon fill="#A8D354" points="239.863,83.734 215.876,69.886 239.863,56.037 "/>
<polygon fill="#CAEA83" points="215.876,69.886 239.863,83.734 215.876,97.583 "/>
<polygon fill="#AED95C" points="239.863,111.431 215.876,97.583 239.863,83.734 "/>
<polygon fill="#C1E57A" points="215.876,97.583 239.863,111.431 215.876,125.279 "/>
<polygon fill="#C4E583" points="239.863,139.127 215.876,125.279 239.863,111.431 "/>
<polygon fill="#CAEA89" points="215.876,125.279 239.863,139.127 215.876,152.976 "/>
<polygon fill="#D1EE9F" points="239.863,166.824 215.876,152.976 239.863,139.127 "/>
<polygon fill="#D0EB9B" points="215.876,152.976 239.863,166.824 215.876,180.672 "/>
<polygon fill="#DCF2B2" points="239.863,194.521 215.876,180.672 239.863,166.824 "/>
<polygon fill="#E4F6C5" points="215.876,180.672 239.863,194.521 215.876,208.369 "/>
<polygon fill="#ECF8D4" points="239.863,222.217 215.876,208.369 239.863,194.521 "/>
<polygon fill="#EEFBD6" points="215.876,208.369 239.863,222.217 215.876,236.066 "/>
<polygon fill="#F1FDDD" points="239.863,249.914 215.876,236.066 239.863,222.217 "/>
<polygon fill="#F5FDEA" points="215.876,236.066 239.863,249.914 215.876,263.764 "/>
<polygon fill="#F9FDF3" points="239.863,277.611 215.876,263.764 239.863,249.914 "/>
<polygon fill="#F6FDEC" points="215.876,263.764 239.863,277.611 215.876,291.459 "/>
<polygon fill="#F6FBF0" points="239.863,305.309 215.876,291.459 239.863,277.611 "/>
<polygon fill="#F6FDEF" points="215.876,291.459 239.863,305.309 215.876,319.156 "/>
<polygon fill="#F8FDF4" points="239.863,333.004 215.876,319.156 239.863,305.309 "/>
<polygon fill="#538F18" points="192.507,1 215.876,14.492 215.876,1 "/>
<polygon fill="#5F9A1D" points="191.89,1 191.89,28.341 215.876,14.492 192.507,1 "/>
<polygon fill="#649E21" points="215.876,42.189 191.89,28.341 215.876,14.492 "/>
<polygon fill="#81B731" points="191.89,28.341 215.876,42.189 191.89,56.037 "/>
<polygon fill="#9ECD46" points="215.876,69.886 191.89,56.037 215.876,42.189 "/>
<polygon fill="#97C941" points="191.89,56.037 215.876,69.886 191.89,83.734 "/>
<polygon fill="#B4DD61" points="215.876,97.583 191.89,83.734 215.876,69.886 "/>
<polygon fill="#B2DB60" points="191.89,83.734 215.876,97.583 191.89,111.431 "/>
<polygon fill="#D5EEA5" points="215.876,125.279 191.89,111.431 215.876,97.583 "/>
<polygon fill="#D7EEAE" points="191.89,111.431 215.876,125.279 191.89,139.127 "/>
<polygon fill="#CAE78E" points="215.876,152.976 191.89,139.127 215.876,125.279 "/>
<polygon fill="#C8E88B" points="191.89,139.127 215.876,152.976 191.89,166.824 "/>
<polygon fill="#CDED92" points="215.876,180.672 191.89,166.824 215.876,152.976 "/>
<polygon fill="#DAF1A5" points="191.89,166.824 215.876,180.672 191.89,194.521 "/>
<polygon fill="#E5F8C2" points="215.876,208.369 191.89,194.521 215.876,180.672 "/>
<polygon fill="#E0F7B7" points="191.89,194.521 215.876,208.369 191.89,222.217 "/>
<polygon fill="#E7F8C8" points="215.876,236.066 191.89,222.217 215.876,208.369 "/>
<polygon fill="#EEFAD8" points="191.89,222.217 215.876,236.066 191.89,249.914 "/>
<polygon fill="#F5FBE7" points="215.876,263.764 191.89,249.914 215.876,236.066 "/>
<polygon fill="#F3FEE5" points="191.89,249.914 215.876,263.764 191.89,277.611 "/>
<polygon fill="#F4FDEB" points="215.876,291.459 191.89,277.611 215.876,263.764 "/>
<polygon fill="#F8FDF5" points="191.89,277.611 215.876,291.459 191.89,305.309 "/>
<polygon fill="#F8FEF4" points="215.876,319.156 191.89,305.309 215.876,291.459 "/>
<polygon fill="#F9FEF4" points="191.89,305.309 215.876,319.156 191.89,333.004 "/>
<polygon fill="#4E8815" points="167.904,1 167.904,14.492 191.273,1 "/>
<polygon fill="#649E21" points="191.273,1 167.904,14.492 191.89,28.341 191.89,1 "/>
<polygon fill="#6DA62A" points="167.904,14.492 191.89,28.341 167.904,42.189 "/>
<polygon fill="#7DB32C" points="191.89,56.037 167.904,42.189 191.89,28.341 "/>
<polygon fill="#86BB34" points="167.904,42.189 191.89,56.037 167.904,69.886 "/>
<polygon fill="#89BE37" points="191.89,83.734 167.904,69.886 191.89,56.037 "/>
<polygon fill="#9BCB48" points="167.904,69.886 191.89,83.734 167.904,97.583 "/>
<polygon fill="#ABD75D" points="191.89,111.431 167.904,97.583 191.89,83.734 "/>
<polygon fill="#C8E68F" points="167.904,97.583 191.89,111.431 167.904,125.279 "/>
<polygon fill="#CEED98" points="191.89,139.127 167.904,125.279 191.89,111.431 "/>
<polygon fill="#CEEE91" points="167.904,125.279 191.89,139.127 167.904,152.976 "/>
<polygon fill="#CCEB8B" points="191.89,166.824 167.904,152.976 191.89,139.127 "/>
<polygon fill="#D1F090" points="167.904,152.976 191.89,166.824 167.904,180.672 "/>
<polygon fill="#D3F190" points="191.89,194.521 167.904,180.672 191.89,166.824 "/>
<polygon fill="#D9F59F" points="167.904,180.672 191.89,194.521 167.904,208.369 "/>
<polygon fill="#D6F497" points="191.89,222.217 167.904,208.369 191.89,194.521 "/>
<polygon fill="#E3F9BB" points="167.904,208.369 191.89,222.217 167.904,236.066 "/>
<polygon fill="#E9F8CD" points="191.89,249.914 167.904,236.066 191.89,222.217 "/>
<polygon fill="#F2FCE1" points="167.904,236.066 191.89,249.914 167.904,263.764 "/>
<polygon fill="#F1FCDE" points="191.89,277.611 167.904,263.764 191.89,249.914 "/>
<polygon fill="#F3FBE7" points="167.904,263.764 191.89,277.611 167.904,291.459 "/>
<polygon fill="#F9FEF2" points="191.89,305.309 167.904,291.459 191.89,277.611 "/>
<polygon fill="#F3FCEA" points="167.904,291.459 191.89,305.309 167.904,319.156 "/>
<polygon fill="#F5FDEA" points="191.89,333.004 167.904,319.156 191.89,305.309 "/>
<line fill="none" x1="191.89" y1="416.095" x2="167.904" y2="402.246"/>
<polygon fill="#4B8413" points="144.535,1 167.904,14.492 167.904,1 "/>
<polygon fill="#5C9720" points="143.917,1 143.917,28.341 167.904,14.492 144.535,1 "/>
<polygon fill="#6FA92C" points="167.904,42.189 143.917,28.341 167.904,14.492 "/>
<polygon fill="#69A322" points="143.917,28.341 167.904,42.189 143.917,56.037 "/>
<polygon fill="#7AB12D" points="167.904,69.886 143.917,56.037 167.904,42.189 "/>
<polygon fill="#89C036" points="143.917,56.037 167.904,69.886 143.917,83.734 "/>
<polygon fill="#9ACB42" points="167.904,97.583 143.917,83.734 167.904,69.886 "/>
<polygon fill="#A2D54A" points="143.917,83.734 167.904,97.583 143.917,111.431 "/>
<polygon fill="#B9DF6F" points="167.904,125.279 143.917,111.431 167.904,97.583 "/>
<polygon fill="#B5DD6D" points="143.917,111.431 167.904,125.279 143.917,139.127 "/>
<polygon fill="#BFE474" points="167.904,152.976 143.917,139.127 167.904,125.279 "/>
<polygon fill="#CAEA93" points="143.917,139.127 167.904,152.976 143.917,166.824 "/>
<polygon fill="#DDF6B4" points="167.904,180.672 143.917,166.824 167.904,152.976 "/>
<polygon fill="#E7F6C8" points="143.917,166.824 167.904,180.672 143.917,194.521 "/>
<polygon fill="#E5F7C1" points="167.904,208.369 143.917,194.521 167.904,180.672 "/>
<polygon fill="#E1F8B7" points="143.917,194.521 167.904,208.369 143.917,222.217 "/>
<polygon fill="#E3F6BC" points="167.904,236.066 143.917,222.217 167.904,208.369 "/>
<polygon fill="#E9F9CA" points="143.917,222.217 167.904,236.066 143.917,249.914 "/>
<polygon fill="#EDFBD9" points="167.904,263.764 143.917,249.914 167.904,236.066 "/>
<polygon fill="#F0FBDB" points="143.917,249.914 167.904,263.764 143.917,277.611 "/>
<polygon fill="#F4FDE6" points="167.904,291.459 143.917,277.611 167.904,263.764 "/>
<polygon fill="#EFFBDB" points="143.917,277.611 167.904,291.459 143.917,305.309 "/>
<polygon fill="#EEF9DA" points="167.904,319.156 143.917,305.309 167.904,291.459 "/>
<polygon fill="#EBF9D7" points="143.917,305.309 167.904,319.156 143.917,333.004 "/>
<path fill="#F4F9EE" d="M167.904,402.246"/>
<polygon fill="#407B0E" points="119.931,1 119.931,14.492 143.301,1 "/>
<polygon fill="#4D8815" points="143.301,1 119.931,14.492 143.917,28.341 143.917,1 "/>
<polygon fill="#518F18" points="119.931,14.492 143.917,28.341 119.931,42.189 "/>
<polygon fill="#649F21" points="143.917,56.037 119.931,42.189 143.917,28.341 "/>
<polygon fill="#71AB2B" points="119.931,42.189 143.917,56.037 119.931,69.886 "/>
<polygon fill="#85BC37" points="143.917,83.734 119.931,69.886 143.917,56.037 "/>
<polygon fill="#98CA46" points="119.931,69.886 143.917,83.734 119.931,97.583 "/>
<polygon fill="#A7D751" points="143.917,111.431 119.931,97.583 143.917,83.734 "/>
<polygon fill="#AFDD5A" points="119.931,97.583 143.917,111.431 119.931,125.279 "/>
<polygon fill="#B9E072" points="143.917,139.127 119.931,125.279 143.917,111.431 "/>
<polygon fill="#B7E269" points="119.931,125.279 143.917,139.127 119.931,152.976 "/>
<polygon fill="#BDE075" points="143.917,166.824 119.931,152.976 143.917,139.127 "/>
<polygon fill="#C9E988" points="119.931,152.976 143.917,166.824 119.931,180.672 "/>
<polygon fill="#DAF3AB" points="143.917,194.521 119.931,180.672 143.917,166.824 "/>
<polygon fill="#D1F391" points="119.931,180.672 143.917,194.521 119.931,208.369 "/>
<polygon fill="#E1F8B2" points="143.917,222.217 119.931,208.369 143.917,194.521 "/>
<polygon fill="#E2F9B9" points="119.931,208.369 143.917,222.217 119.931,236.066 "/>
<polygon fill="#E3F8B9" points="143.917,249.914 119.931,236.066 143.917,222.217 "/>
<polygon fill="#D4F394" points="119.931,236.066 143.917,249.914 119.931,263.764 "/>
<polygon fill="#E5F7C1" points="143.917,277.611 119.931,263.764 143.917,249.914 "/>
<polygon fill="#E8F9C9" points="119.931,263.764 143.917,277.611 119.931,291.459 "/>
<polygon fill="#EEFBDA" points="143.917,305.309 119.931,291.459 143.917,277.611 "/>
<polygon fill="#F0FBDF" points="119.931,291.459 143.917,305.309 119.931,319.156 "/>
<polygon fill="#F0FBE0" points="143.917,333.004 119.931,319.156 143.917,305.309 "/>
<polygon fill="#EEF9DC" points="119.931,319.156 143.917,333.004 119.931,346.854 "/>
<polygon fill="#3E790E" points="96.562,1 119.931,14.492 119.931,1 "/>
<polygon fill="#478213" points="95.945,1 95.945,28.341 119.931,14.492 96.562,1 "/>
<polygon fill="#4E8C16" points="119.931,42.189 95.945,28.341 119.931,14.492 "/>
<polygon fill="#59951B" points="95.945,28.341 119.931,42.189 95.945,56.037 "/>
<polygon fill="#69A427" points="119.931,69.886 95.945,56.037 119.931,42.189 "/>
<polygon fill="#75AF2D" points="95.945,56.037 119.931,69.886 95.945,83.734 "/>
<polygon fill="#9ACE4B" points="119.931,97.583 95.945,83.734 119.931,69.886 "/>
<polygon fill="#9ACF48" points="95.945,83.734 119.931,97.583 95.945,111.431 "/>
<polygon fill="#A9D754" points="119.931,125.279 95.945,111.431 119.931,97.583 "/>
<polygon fill="#C3E677" points="95.945,111.431 119.931,125.279 95.945,139.127 "/>
<polygon fill="#C9E986" points="119.931,152.976 95.945,139.127 119.931,125.279 "/>
<polygon fill="#C4E87C" points="95.945,139.127 119.931,152.976 95.945,166.824 "/>
<polygon fill="#C7EB80" points="119.931,180.672 95.945,166.824 119.931,152.976 "/>
<polygon fill="#C9ED7C" points="95.945,166.824 119.931,180.672 95.945,194.521 "/>
<polygon fill="#CBEF83" points="119.931,208.369 95.945,194.521 119.931,180.672 "/>
<polygon fill="#D3F394" points="95.945,194.521 119.931,208.369 95.945,222.217 "/>
<polygon fill="#D9F2A1" points="119.931,236.066 95.945,222.217 119.931,208.369 "/>
<polygon fill="#D2F390" points="95.945,222.217 119.931,236.066 95.945,249.914 "/>
<polygon fill="#CFF08E" points="119.931,263.764 95.945,249.914 119.931,236.066 "/>
<polygon fill="#CFF089" points="95.945,249.914 119.931,263.764 95.945,277.611 "/>
<polygon fill="#DCF5AE" points="119.931,291.459 95.945,277.611 119.931,263.764 "/>
<polygon fill="#DFF7B3" points="95.945,277.611 119.931,291.459 95.945,305.309 "/>
<polygon fill="#EAFACD" points="119.931,319.156 95.945,305.309 119.931,291.459 "/>
<polygon fill="#EAF9D1" points="95.945,305.309 119.931,319.156 95.945,333.004 "/>
<polygon fill="#EBF9D6" points="119.931,346.854 95.945,333.004 119.931,319.156 "/>
<polygon fill="#EBF9D6" points="95.945,333.004 119.931,346.854 95.945,360.701 "/>
<polygon fill="#35710B" points="71.958,1 71.958,14.492 95.328,1 "/>
<polygon fill="#427F10" points="95.328,1 71.958,14.492 95.945,28.341 95.945,1 "/>
<polygon fill="#4C8A17" points="71.958,14.492 95.945,28.341 71.958,42.189 "/>
<polygon fill="#5A9820" points="95.945,56.037 71.958,42.189 95.945,28.341 "/>
<polygon fill="#5E9A21" points="71.958,42.189 95.945,56.037 71.958,69.886 "/>
<polygon fill="#75AF2E" points="95.945,83.734 71.958,69.886 95.945,56.037 "/>
<polygon fill="#98C946" points="71.958,69.886 95.945,83.734 71.958,97.583 "/>
<polygon fill="#94CA41" points="95.945,111.431 71.958,97.583 95.945,83.734 "/>
<polygon fill="#99CF41" points="71.958,97.583 95.945,111.431 71.958,125.279 "/>
<polygon fill="#AADB51" points="95.945,139.127 71.958,125.279 95.945,111.431 "/>
<polygon fill="#8CC933" points="71.958,125.279 95.945,139.127 71.958,152.976 "/>
<polygon fill="#93CD35" points="95.945,166.824 71.958,152.976 95.945,139.127 "/>
<polygon fill="#A1D83F" points="71.958,152.976 95.945,166.824 71.958,180.672 "/>
<polygon fill="#B8E561" points="95.945,194.521 71.958,180.672 95.945,166.824 "/>
<polygon fill="#ACDF4F" points="71.958,180.672 95.945,194.521 71.958,208.369 "/>
<polygon fill="#C8EE85" points="95.945,222.217 71.958,208.369 95.945,194.521 "/>
<polygon fill="#B5E25A" points="71.958,208.369 95.945,222.217 71.958,236.066 "/>
<polygon fill="#BDEB63" points="95.945,249.914 71.958,236.066 95.945,222.217 "/>
<polygon fill="#C7EF77" points="71.958,236.066 95.945,249.914 71.958,263.764 "/>
<polygon fill="#D5F597" points="95.945,277.611 71.958,263.764 95.945,249.914 "/>
<polygon fill="#D6F399" points="71.958,263.764 95.945,277.611 71.958,291.459 "/>
<polygon fill="#DEF5AE" points="95.945,305.309 71.958,291.459 95.945,277.611 "/>
<polygon fill="#E3F8BC" points="71.958,291.459 95.945,305.309 71.958,319.156 "/>
<polygon fill="#DFF6BA" points="95.945,333.004 71.958,319.156 95.945,305.309 "/>
<polygon fill="#D9F4AE" points="71.958,319.156 95.945,333.004 71.958,346.854 "/>
<polygon fill="#E5F4C8" points="95.945,360.701 71.958,346.854 95.945,333.004 "/>
<polygon fill="#ECF9D9" points="71.958,346.854 95.945,360.701 71.958,374.549 "/>
<polygon fill="#2D6705" points="48.589,1 71.958,14.492 71.958,1 "/>
<polygon fill="#306D08" points="47.972,1 47.972,28.341 71.958,14.492 48.589,1 "/>
<polygon fill="#38760B" points="71.958,42.189 47.972,28.341 71.958,14.492 "/>
<polygon fill="#3C7E0E" points="47.972,28.341 71.958,42.189 47.972,56.037 "/>
<polygon fill="#458912" points="71.958,69.886 47.972,56.037 71.958,42.189 "/>
<polygon fill="#4A8C14" points="47.972,56.037 71.958,69.886 47.972,83.734 "/>
<polygon fill="#74B22F" points="71.958,97.583 47.972,83.734 71.958,69.886 "/>
<polygon fill="#68A825" points="47.972,83.734 71.958,97.583 47.972,111.431 "/>
<polygon fill="#7FB92C" points="71.958,125.279 47.972,111.431 71.958,97.583 "/>
<polygon fill="#75B526" points="47.972,111.431 71.958,125.279 47.972,139.127 "/>
<polygon fill="#90CA38" points="71.958,152.976 47.972,139.127 71.958,125.279 "/>
<polygon fill="#A5D750" points="47.972,139.127 71.958,152.976 47.972,166.824 "/>
<polygon fill="#B4E45A" points="71.958,180.672 47.972,166.824 71.958,152.976 "/>
<polygon fill="#A4DB41" points="47.972,166.824 71.958,180.672 47.972,194.521 "/>
<polygon fill="#9FD639" points="71.958,208.369 47.972,194.521 71.958,180.672 "/>
<polygon fill="#A4DB3E" points="47.972,194.521 71.958,208.369 47.972,222.217 "/>
<polygon fill="#AFE14D" points="71.958,236.066 47.972,222.217 71.958,208.369 "/>
<polygon fill="#B5E454" points="47.972,222.217 71.958,236.066 47.972,249.914 "/>
<polygon fill="#BFE865" points="71.958,263.764 47.972,249.914 71.958,236.066 "/>
<polygon fill="#D0F289" points="47.972,249.914 71.958,263.764 47.972,277.611 "/>
<polygon fill="#D9F69C" points="71.958,291.459 47.972,277.611 71.958,263.764 "/>
<polygon fill="#DDF8A8" points="47.972,277.611 71.958,291.459 47.972,305.309 "/>
<polygon fill="#D3F397" points="71.958,319.156 47.972,305.309 71.958,291.459 "/>
<polygon fill="#D4F397" points="47.972,305.309 71.958,319.156 47.972,333.004 "/>
<polygon fill="#CAEE87" points="71.958,346.854 47.972,333.004 71.958,319.156 "/>
<polygon fill="#D6F3A1" points="47.972,333.004 71.958,346.854 47.972,360.701 "/>
<polygon fill="#E8F8CB" points="71.958,374.549 47.972,360.701 71.958,346.854 "/>
<polygon fill="#EDF9D9" points="47.972,360.701 71.958,374.549 47.972,388.396 "/>
<polygon fill="#2A6405" points="23.986,1 23.986,14.492 47.355,1 "/>
<polygon fill="#33700C" points="47.355,1 23.986,14.492 47.972,28.341 47.972,1 "/>
<polygon fill="#387810" points="23.986,14.492 47.972,28.341 23.986,42.189 "/>
<polygon fill="#3D7D0E" points="47.972,56.037 23.986,42.189 47.972,28.341 "/>
<polygon fill="#3B7D0D" points="23.986,42.189 47.972,56.037 23.986,69.886 "/>
<polygon fill="#42850E" points="47.972,83.734 23.986,69.886 47.972,56.037 "/>
<polygon fill="#438910" points="23.986,69.886 47.972,83.734 23.986,97.583 "/>
<polygon fill="#54981B" points="47.972,111.431 23.986,97.583 47.972,83.734 "/>
<polygon fill="#62A221" points="23.986,97.583 47.972,111.431 23.986,125.279 "/>
<polygon fill="#5CA11D" points="47.972,139.127 23.986,125.279 47.972,111.431 "/>
<polygon fill="#5CA11B" points="23.986,125.279 47.972,139.127 23.986,152.976 "/>
<polygon fill="#6FB021" points="47.972,166.824 23.986,152.976 47.972,139.127 "/>
<polygon fill="#72B325" points="23.986,152.976 47.972,166.824 23.986,180.672 "/>
<polygon fill="#91C933" points="47.972,194.521 23.986,180.672 47.972,166.824 "/>
<polygon fill="#88C52B" points="23.986,180.672 47.972,194.521 23.986,208.369 "/>
<polygon fill="#96D233" points="47.972,222.217 23.986,208.369 47.972,194.521 "/>
<polygon fill="#91CD2B" points="23.986,208.369 47.972,222.217 23.986,236.066 "/>
<polygon fill="#A1D739" points="47.972,249.914 23.986,236.066 47.972,222.217 "/>
<polygon fill="#A4D93F" points="23.986,236.066 47.972,249.914 23.986,263.764 "/>
<polygon fill="#CEF285" points="47.972,277.611 23.986,263.764 47.972,249.914 "/>
<polygon fill="#C9F27C" points="23.986,263.764 47.972,277.611 23.986,291.459 "/>
<polygon fill="#DBF5A5" points="47.972,305.309 23.986,291.459 47.972,277.611 "/>
<polygon fill="#D7F59C" points="23.986,291.459 47.972,305.309 23.986,319.156 "/>
<polygon fill="#DAF4A5" points="47.972,333.004 23.986,319.156 47.972,305.309 "/>
<polygon fill="#D5F29C" points="23.986,319.156 47.972,333.004 23.986,346.854 "/>
<polygon fill="#D8F4A6" points="47.972,360.701 23.986,346.854 47.972,333.004 "/>
<polygon fill="#D7F1A7" points="23.986,346.854 47.972,360.701 23.986,374.549 "/>
<polygon fill="#E0F5BF" points="47.972,388.396 23.986,374.549 47.972,360.701 "/>
<polygon fill="#DCF4B9" points="23.986,374.549 47.972,388.396 23.986,402.246 "/>
<polygon fill="#296404" points="0.617,1 23.986,14.492 23.986,1 "/>
<polygon fill="#2F6B09" points="0,1 0,28.341 23.986,14.492 0.617,1 "/>
<polygon fill="#34740C" points="23.986,42.189 0,28.341 23.986,14.492 "/>
<polygon fill="#35760E" points="0,28.341 23.986,42.189 0,56.037 "/>
<polygon fill="#34760C" points="23.986,69.886 0,56.037 23.986,42.189 "/>
<polygon fill="#34780C" points="0,56.037 23.986,69.886 0,83.734 "/>
<polygon fill="#3C8311" points="23.986,97.583 0,83.734 23.986,69.886 "/>
<polygon fill="#408613" points="0,83.734 23.986,97.583 0,111.431 "/>
<polygon fill="#529319" points="23.986,125.279 0,111.431 23.986,97.583 "/>
<polygon fill="#53981A" points="0,111.431 23.986,125.279 0,139.127 "/>
<polygon fill="#569C1A" points="23.986,152.976 0,139.127 23.986,125.279 "/>
<polygon fill="#579D1B" points="0,139.127 23.986,152.976 0,166.824 "/>
<polygon fill="#6AA925" points="23.986,180.672 0,166.824 23.986,152.976 "/>
<polygon fill="#7FB72B" points="0,166.824 23.986,180.672 0,194.521 "/>
<polygon fill="#87C22B" points="23.986,208.369 0,194.521 23.986,180.672 "/>
<polygon fill="#84C126" points="0,194.521 23.986,208.369 0,222.217 "/>
<polygon fill="#86C323" points="23.986,236.066 0,222.217 23.986,208.369 "/>
<polygon fill="#8AC624" points="0,222.217 23.986,236.066 0,249.914 "/>
<polygon fill="#8BCA25" points="23.986,263.764 0,249.914 23.986,236.066 "/>
<polygon fill="#97D631" points="0,249.914 23.986,263.764 0,277.611 "/>
<polygon fill="#B5E754" points="23.986,291.459 0,277.611 23.986,263.764 "/>
<polygon fill="#B8EA58" points="0,277.611 23.986,291.459 0,305.309 "/>
<polygon fill="#C2F06B" points="23.986,319.156 0,305.309 23.986,291.459 "/>
<polygon fill="#C1EB6F" points="0,305.309 23.986,319.156 0,333.004 "/>
<polygon fill="#CBED85" points="23.986,346.854 0,333.004 23.986,319.156 "/>
<polygon fill="#CBEC8A" points="0,333.004 23.986,346.854 0,360.701 "/>
<polygon fill="#CFEE99" points="23.986,374.549 0,360.701 23.986,346.854 "/>
<polygon fill="#CEEF98" points="0,360.701 23.986,374.549 0,388.396 "/>
<polygon fill="#CBEF97" points="23.986,402.246 0,388.396 23.986,374.549 "/>
<polygon fill="#DBF1BC" points="0,388.396 23.986,402.246 0,416.095 "/>
<polygon fill="#7D8640" points="-0.148,1 -0.148,28.255 0,28.341 0,1 "/>
<polygon fill="#808841" points="-0.148,28.426 -0.148,55.952 0,56.037 0,28.341 "/>
<polygon fill="#828B43" points="-0.148,56.123 -0.148,83.649 0,83.734 0,56.037 "/>
<polygon fill="#889149" points="-0.148,83.819 -0.148,111.346 0,111.431 0,83.734 "/>
<polygon fill="#FFFFFF" points="-0.148,111.516 -0.148,139.042 0,139.127 0,111.431 "/>
<polygon fill="#F4F4F4" points="-0.148,139.212 -0.148,166.739 0,166.824 0,139.127 "/>
<polygon fill="#D1D1D1" points="-0.148,166.909 -0.148,194.436 0,194.521 0,166.824 "/>
<polygon fill="#C2C2C2" points="-0.148,194.606 -0.148,222.132 0,222.217 0,194.521 "/>
<polygon fill="#D8D8D8" points="-0.148,222.303 -0.148,249.829 0,249.914 0,222.217 "/>
<polygon fill="#D2D2D2" points="-0.148,249.999 -0.148,277.525 0,277.611 0,249.914 "/>
<polygon fill="#D4D4D4" points="-0.148,277.695 -0.148,305.223 0,305.309 0,277.611 "/>
<polygon fill="#DDDDDD" points="-0.148,305.393 -0.148,332.919 0,333.004 0,305.309 "/>
<polygon fill="#CBCBCB" points="-0.148,333.09 -0.148,360.616 0,360.701 0,333.004 "/>
<polygon fill="#D2D2D2" points="-0.148,360.786 -0.148,388.313 0,388.396 0,360.701 "/>
<polygon fill="#BABABA" points="-0.148,388.482 -0.148,416.009 0,416.095 0,388.396 "/>
<g opacity="0.53">
	<polygon fill="#26530D" points="23.222,1 -0.148,14.492 -0.148,1 	"/>
	<polygon fill="#285E06" points="23.838,1 23.838,28.341 -0.148,14.492 23.222,1 	"/>
	<polygon fill="#2C6408" points="-0.148,42.189 23.838,28.341 -0.148,14.492 	"/>
	<polygon fill="#316E07" points="23.838,28.341 -0.148,42.189 23.838,56.037 	"/>
	<polygon fill="#347408" points="-0.148,69.886 23.838,56.037 -0.148,42.189 	"/>
	<polygon fill="#3F800C" points="23.838,56.037 -0.148,69.886 23.838,83.734 	"/>
	<polygon fill="#43860E" points="-0.148,97.583 23.838,83.734 -0.148,69.886 	"/>
	<polygon fill="#579B19" points="23.838,83.734 -0.148,97.583 23.838,111.431 	"/>
	<polygon fill="#5DA019" points="-0.148,125.279 23.838,111.431 -0.148,97.583 	"/>
	<polygon fill="#71B021" points="23.838,111.431 -0.148,125.279 23.838,139.127 	"/>
	<polygon fill="#73B422" points="-0.148,152.976 23.838,139.127 -0.148,125.279 	"/>
	<polygon fill="#78B923" points="23.838,139.127 -0.148,152.976 23.838,166.824 	"/>
	<polygon fill="#7FBF26" points="-0.148,180.672 23.838,166.824 -0.148,152.976 	"/>
	<polygon fill="#A4D644" points="23.838,166.824 -0.148,180.672 23.838,194.521 	"/>
	<polygon fill="#9ED33D" points="-0.148,208.369 23.838,194.521 -0.148,180.672 	"/>
	<polygon fill="#B1E158" points="23.838,194.521 -0.148,208.369 23.838,222.217 	"/>
	<polygon fill="#A7DC44" points="-0.148,236.066 23.838,222.217 -0.148,208.369 	"/>
	<polygon fill="#ADE053" points="23.838,222.217 -0.148,236.066 23.838,249.914 	"/>
	<polygon fill="#A8DE4B" points="-0.148,263.764 23.838,249.914 -0.148,236.066 	"/>
	<polygon fill="#C8EA87" points="23.838,249.914 -0.148,263.764 23.838,277.611 	"/>
	<polygon fill="#CBEE8D" points="-0.148,291.459 23.838,277.611 -0.148,263.764 	"/>
	<polygon fill="#D5F3A7" points="23.838,277.611 -0.148,291.459 23.838,305.309 	"/>
	<polygon fill="#D9F3B0" points="-0.148,319.156 23.838,305.309 -0.148,291.459 	"/>
	<polygon fill="#E1F4C0" points="23.838,305.309 -0.148,319.156 23.838,333.004 	"/>
	<polygon fill="#E3F7C7" points="-0.148,346.854 23.838,333.004 -0.148,319.156 	"/>
	<polygon fill="#ECFBDC" points="23.838,333.004 -0.148,346.854 23.838,360.701 	"/>
	<polygon fill="#EAF8D9" points="-0.148,374.549 23.838,360.701 -0.148,346.854 	"/>
	<polygon fill="#EDF8DF" points="23.838,360.701 -0.148,374.549 23.838,388.396 	"/>
	<polygon fill="#EFFBE2" points="-0.148,402.246 23.838,388.396 -0.148,374.549 	"/>
	<polygon fill="#245B02" points="47.825,1 47.825,14.492 24.456,1 	"/>
	<polygon fill="#296307" points="24.456,1 47.825,14.492 23.838,28.341 23.838,1 	"/>
	<polygon fill="#336D0A" points="47.825,14.492 23.838,28.341 47.825,42.189 	"/>
	<polygon fill="#347209" points="23.838,56.037 47.825,42.189 23.838,28.341 	"/>
	<polygon fill="#3E7C0D" points="47.825,42.189 23.838,56.037 47.825,69.886 	"/>
	<polygon fill="#488611" points="23.838,83.734 47.825,69.886 23.838,56.037 	"/>
	<polygon fill="#599519" points="47.825,69.886 23.838,83.734 47.825,97.583 	"/>
	<polygon fill="#68A422" points="23.838,111.431 47.825,97.583 23.838,83.734 	"/>
	<polygon fill="#84BD34" points="47.825,97.583 23.838,111.431 47.825,125.279 	"/>
	<polygon fill="#85C130" points="23.838,139.127 47.825,125.279 23.838,111.431 	"/>
	<polygon fill="#97CB3E" points="47.825,125.279 23.838,139.127 47.825,152.976 	"/>
	<polygon fill="#8CC631" points="23.838,166.824 47.825,152.976 23.838,139.127 	"/>
	<polygon fill="#9AD03D" points="47.825,152.976 23.838,166.824 47.825,180.672 	"/>
	<polygon fill="#A8D94B" points="23.838,194.521 47.825,180.672 23.838,166.824 	"/>
	<polygon fill="#AAD94E" points="47.825,180.672 23.838,194.521 47.825,208.369 	"/>
	<polygon fill="#B4E25E" points="23.838,222.217 47.825,208.369 23.838,194.521 	"/>
	<polygon fill="#BCE672" points="47.825,208.369 23.838,222.217 47.825,236.066 	"/>
	<polygon fill="#C0E67A" points="23.838,249.914 47.825,236.066 23.838,222.217 	"/>
	<polygon fill="#CEED97" points="47.825,236.066 23.838,249.914 47.825,263.764 	"/>
	<polygon fill="#CBEB95" points="23.838,277.611 47.825,263.764 23.838,249.914 	"/>
	<polygon fill="#DBF2B2" points="47.825,263.764 23.838,277.611 47.825,291.459 	"/>
	<polygon fill="#E2F6C4" points="23.838,305.309 47.825,291.459 23.838,277.611 	"/>
	<polygon fill="#E8F7D2" points="47.825,291.459 23.838,305.309 47.825,319.156 	"/>
	<polygon fill="#EDF9DE" points="23.838,333.004 47.825,319.156 23.838,305.309 	"/>
	<polygon fill="#F3FDEB" points="47.825,319.156 23.838,333.004 47.825,346.854 	"/>
	<polygon fill="#F4FEEB" points="23.838,360.701 47.825,346.854 23.838,333.004 	"/>
	<polygon fill="#F1FCE8" points="47.825,346.854 23.838,360.701 47.825,374.549 	"/>
	<polygon fill="#EFFAE4" points="23.838,388.396 47.825,374.549 23.838,360.701 	"/>
	<polygon fill="#286105" points="71.194,1 47.825,14.492 47.825,1 	"/>
	<polygon fill="#2E6805" points="71.811,1 71.811,28.341 47.825,14.492 71.194,1 	"/>
	<polygon fill="#36700C" points="47.825,42.189 71.811,28.341 47.825,14.492 	"/>
	<polygon fill="#407C0D" points="71.811,28.341 47.825,42.189 71.811,56.037 	"/>
	<polygon fill="#448311" points="47.825,69.886 71.811,56.037 47.825,42.189 	"/>
	<polygon fill="#508D13" points="71.811,56.037 47.825,69.886 71.811,83.734 	"/>
	<polygon fill="#629E1F" points="47.825,97.583 71.811,83.734 47.825,69.886 	"/>
	<polygon fill="#76B228" points="71.811,83.734 47.825,97.583 71.811,111.431 	"/>
	<polygon fill="#9ACE46" points="47.825,125.279 71.811,111.431 47.825,97.583 	"/>
	<polygon fill="#B1DE5F" points="71.811,111.431 47.825,125.279 71.811,139.127 	"/>
	<polygon fill="#B2DE5E" points="47.825,152.976 71.811,139.127 47.825,125.279 	"/>
	<polygon fill="#B9E064" points="71.811,139.127 47.825,152.976 71.811,166.824 	"/>
	<polygon fill="#B6DE5F" points="47.825,180.672 71.811,166.824 47.825,152.976 	"/>
	<polygon fill="#B5DD63" points="71.811,166.824 47.825,180.672 71.811,194.521 	"/>
	<polygon fill="#C0E674" points="47.825,208.369 71.811,194.521 47.825,180.672 	"/>
	<polygon fill="#C3E481" points="71.811,194.521 47.825,208.369 71.811,222.217 	"/>
	<polygon fill="#C7E98B" points="47.825,236.066 71.811,222.217 47.825,208.369 	"/>
	<polygon fill="#D8EEAB" points="71.811,222.217 47.825,236.066 71.811,249.914 	"/>
	<polygon fill="#DEF5B6" points="47.825,263.764 71.811,249.914 47.825,236.066 	"/>
	<polygon fill="#E7F7CD" points="71.811,249.914 47.825,263.764 71.811,277.611 	"/>
	<polygon fill="#E6F7CB" points="47.825,291.459 71.811,277.611 47.825,263.764 	"/>
	<polygon fill="#ECF9DD" points="71.811,277.611 47.825,291.459 71.811,305.309 	"/>
	<polygon fill="#ECF8DC" points="47.825,319.156 71.811,305.309 47.825,291.459 	"/>
	<polygon fill="#EDF8DF" points="71.811,305.309 47.825,319.156 71.811,333.004 	"/>
	<polygon fill="#F3FDEA" points="47.825,346.854 71.811,333.004 47.825,319.156 	"/>
	<polygon fill="#F3FCEA" points="71.811,333.004 47.825,346.854 71.811,360.701 	"/>
	<polygon fill="#EEFAE1" points="47.825,374.549 71.811,360.701 47.825,346.854 	"/>
	<polygon fill="#356E09" points="95.797,1 95.797,14.492 72.428,1 	"/>
	<polygon fill="#37710A" points="72.428,1 95.797,14.492 71.811,28.341 71.811,1 	"/>
	<polygon fill="#407E0E" points="95.797,14.492 71.811,28.341 95.797,42.189 	"/>
	<polygon fill="#498611" points="71.811,56.037 95.797,42.189 71.811,28.341 	"/>
	<polygon fill="#659C23" points="95.797,42.189 71.811,56.037 95.797,69.886 	"/>
	<polygon fill="#6DA628" points="71.811,83.734 95.797,69.886 71.811,56.037 	"/>
	<polygon fill="#79B32C" points="95.797,69.886 71.811,83.734 95.797,97.583 	"/>
	<polygon fill="#86BE31" points="71.811,111.431 95.797,97.583 71.811,83.734 	"/>
	<polygon fill="#9ACC42" points="95.797,97.583 71.811,111.431 95.797,125.279 	"/>
	<polygon fill="#B0DB5F" points="71.811,139.127 95.797,125.279 71.811,111.431 	"/>
	<polygon fill="#ABD654" points="95.797,125.279 71.811,139.127 95.797,152.976 	"/>
	<polygon fill="#C3E77D" points="71.811,166.824 95.797,152.976 71.811,139.127 	"/>
	<polygon fill="#B9E06C" points="95.797,152.976 71.811,166.824 95.797,180.672 	"/>
	<polygon fill="#B6E066" points="71.811,194.521 95.797,180.672 71.811,166.824 	"/>
	<polygon fill="#D5EEA6" points="95.797,180.672 71.811,194.521 95.797,208.369 	"/>
	<polygon fill="#DAF4B4" points="71.811,222.217 95.797,208.369 71.811,194.521 	"/>
	<polygon fill="#E6F7CC" points="95.797,208.369 71.811,222.217 95.797,236.066 	"/>
	<polygon fill="#DDF2B5" points="71.811,249.914 95.797,236.066 71.811,222.217 	"/>
	<polygon fill="#DBF2B6" points="95.797,236.066 71.811,249.914 95.797,263.764 	"/>
	<polygon fill="#E6F6CE" points="71.811,277.611 95.797,263.764 71.811,249.914 	"/>
	<polygon fill="#E2F7C7" points="95.797,263.764 71.811,277.611 95.797,291.459 	"/>
	<polygon fill="#E6F7D2" points="71.811,305.309 95.797,291.459 71.811,277.611 	"/>
	<polygon fill="#EAF7D8" points="95.797,291.459 71.811,305.309 95.797,319.156 	"/>
	<polygon fill="#EEF9E1" points="71.811,333.004 95.797,319.156 71.811,305.309 	"/>
	<polygon fill="#F3F9EA" points="95.797,319.156 71.811,333.004 95.797,346.854 	"/>
	<polygon fill="#F6FBF0" points="71.811,360.701 95.797,346.854 71.811,333.004 	"/>
	<polygon fill="#3A790C" points="119.167,1 95.797,14.492 95.797,1 	"/>
	<polygon fill="#4A8B12" points="119.784,1 119.784,28.341 95.797,14.492 119.167,1 	"/>
	<polygon fill="#478711" points="95.797,42.189 119.784,28.341 95.797,14.492 	"/>
	<polygon fill="#528F17" points="119.784,28.341 95.797,42.189 119.784,56.037 	"/>
	<polygon fill="#5B971A" points="95.797,69.886 119.784,56.037 95.797,42.189 	"/>
	<polygon fill="#6AA422" points="119.784,56.037 95.797,69.886 119.784,83.734 	"/>
	<polygon fill="#79B02A" points="95.797,97.583 119.784,83.734 95.797,69.886 	"/>
	<polygon fill="#A5CE54" points="119.784,83.734 95.797,97.583 119.784,111.431 	"/>
	<polygon fill="#98C841" points="95.797,125.279 119.784,111.431 95.797,97.583 	"/>
	<polygon fill="#A0D049" points="119.784,111.431 95.797,125.279 119.784,139.127 	"/>
	<polygon fill="#A7D44E" points="95.797,152.976 119.784,139.127 95.797,125.279 	"/>
	<polygon fill="#BCE070" points="119.784,139.127 95.797,152.976 119.784,166.824 	"/>
	<polygon fill="#BEE278" points="95.797,180.672 119.784,166.824 95.797,152.976 	"/>
	<polygon fill="#D0EBA0" points="119.784,166.824 95.797,180.672 119.784,194.521 	"/>
	<polygon fill="#E3F5C4" points="95.797,208.369 119.784,194.521 95.797,180.672 	"/>
	<polygon fill="#E2F3C3" points="119.784,194.521 95.797,208.369 119.784,222.217 	"/>
	<polygon fill="#E8F7CE" points="95.797,236.066 119.784,222.217 95.797,208.369 	"/>
	<polygon fill="#E5F7C9" points="119.784,222.217 95.797,236.066 119.784,249.914 	"/>
	<polygon fill="#E1F3C3" points="95.797,263.764 119.784,249.914 95.797,236.066 	"/>
	<polygon fill="#E7F5D5" points="119.784,249.914 95.797,263.764 119.784,277.611 	"/>
	<polygon fill="#E8F7D3" points="95.797,291.459 119.784,277.611 95.797,263.764 	"/>
	<polygon fill="#EEF8E1" points="119.784,277.611 95.797,291.459 119.784,305.309 	"/>
	<polygon fill="#F1FBE7" points="95.797,319.156 119.784,305.309 95.797,291.459 	"/>
	<polygon fill="#F3FBEA" points="119.784,305.309 95.797,319.156 119.784,333.004 	"/>
	<polygon fill="#EEF8E1" points="95.797,346.854 119.784,333.004 95.797,319.156 	"/>
	<polygon fill="#3B790B" points="143.77,1 143.77,14.492 120.4,1 	"/>
	<polygon fill="#4C8D13" points="120.4,1 143.77,14.492 119.784,28.341 119.784,1 	"/>
	<polygon fill="#508F15" points="143.77,14.492 119.784,28.341 143.77,42.189 	"/>
	<polygon fill="#569318" points="119.784,56.037 143.77,42.189 119.784,28.341 	"/>
	<polygon fill="#639E21" points="143.77,42.189 119.784,56.037 143.77,69.886 	"/>
	<polygon fill="#6FA926" points="119.784,83.734 143.77,69.886 119.784,56.037 	"/>
	<polygon fill="#82B931" points="143.77,69.886 119.784,83.734 143.77,97.583 	"/>
	<polygon fill="#9DCD49" points="119.784,111.431 143.77,97.583 119.784,83.734 	"/>
	<polygon fill="#ABD55B" points="143.77,97.583 119.784,111.431 143.77,125.279 	"/>
	<polygon fill="#AED75D" points="119.784,139.127 143.77,125.279 119.784,111.431 	"/>
	<polygon fill="#C1E181" points="143.77,125.279 119.784,139.127 143.77,152.976 	"/>
	<polygon fill="#CCE996" points="119.784,166.824 143.77,152.976 119.784,139.127 	"/>
	<polygon fill="#D2EAA7" points="143.77,152.976 119.784,166.824 143.77,180.672 	"/>
	<polygon fill="#C7E48D" points="119.784,194.521 143.77,180.672 119.784,166.824 	"/>
	<polygon fill="#CDE99C" points="143.77,180.672 119.784,194.521 143.77,208.369 	"/>
	<polygon fill="#DDF5BB" points="119.784,222.217 143.77,208.369 119.784,194.521 	"/>
	<polygon fill="#DCF1BA" points="143.77,208.369 119.784,222.217 143.77,236.066 	"/>
	<polygon fill="#E5F4CA" points="119.784,249.914 143.77,236.066 119.784,222.217 	"/>
	<polygon fill="#E9F6D7" points="143.77,236.066 119.784,249.914 143.77,263.764 	"/>
	<polygon fill="#EDF8DF" points="119.784,277.611 143.77,263.764 119.784,249.914 	"/>
	<polygon fill="#F3FAEC" points="143.77,263.764 119.784,277.611 143.77,291.459 	"/>
	<polygon fill="#F5FDEF" points="119.784,305.309 143.77,291.459 119.784,277.611 	"/>
	<polygon fill="#F7FDF2" points="143.77,291.459 119.784,305.309 143.77,319.156 	"/>
	<polygon fill="#F4FAEB" points="119.784,333.004 143.77,319.156 119.784,305.309 	"/>
	<polygon fill="#3D7A0D" points="167.14,1 143.77,14.492 143.77,1 	"/>
	<polygon fill="#458412" points="167.756,1 167.756,28.341 143.77,14.492 167.14,1 	"/>
	<polygon fill="#4F8D16" points="143.77,42.189 167.756,28.341 143.77,14.492 	"/>
	<polygon fill="#6BA524" points="167.756,28.341 143.77,42.189 167.756,56.037 	"/>
	<polygon fill="#71A929" points="143.77,69.886 167.756,56.037 143.77,42.189 	"/>
	<polygon fill="#7DB230" points="167.756,56.037 143.77,69.886 167.756,83.734 	"/>
	<polygon fill="#84B835" points="143.77,97.583 167.756,83.734 143.77,69.886 	"/>
	<polygon fill="#9CC94C" points="167.756,83.734 143.77,97.583 167.756,111.431 	"/>
	<polygon fill="#AAD261" points="143.77,125.279 167.756,111.431 143.77,97.583 	"/>
	<polygon fill="#AED664" points="167.756,111.431 143.77,125.279 167.756,139.127 	"/>
	<polygon fill="#B7DC71" points="143.77,152.976 167.756,139.127 143.77,125.279 	"/>
	<polygon fill="#B7DC6E" points="167.756,139.127 143.77,152.976 167.756,166.824 	"/>
	<polygon fill="#BBE075" points="143.77,180.672 167.756,166.824 143.77,152.976 	"/>
	<polygon fill="#CDEA9C" points="167.756,166.824 143.77,180.672 167.756,194.521 	"/>
	<polygon fill="#D3EDA7" points="143.77,208.369 167.756,194.521 143.77,180.672 	"/>
	<polygon fill="#DAEFAF" points="167.756,194.521 143.77,208.369 167.756,222.217 	"/>
	<polygon fill="#DEF0BF" points="143.77,236.066 167.756,222.217 143.77,208.369 	"/>
	<polygon fill="#E0F1C1" points="167.756,222.217 143.77,236.066 167.756,249.914 	"/>
	<polygon fill="#DCF0B9" points="143.77,263.764 167.756,249.914 143.77,236.066 	"/>
	<polygon fill="#E5F5D1" points="167.756,249.914 143.77,263.764 167.756,277.611 	"/>
	<polygon fill="#F1F9E6" points="143.77,291.459 167.756,277.611 143.77,263.764 	"/>
	<polygon fill="#F4FBEF" points="167.756,277.611 143.77,291.459 167.756,305.309 	"/>
	<polygon fill="#F8FDF5" points="143.77,319.156 167.756,305.309 143.77,291.459 	"/>
	<polygon fill="#F4FBF1" points="167.756,305.309 143.77,319.156 167.756,333.004 	"/>
	<polygon fill="#43800F" points="191.743,1 191.743,14.492 168.373,1 	"/>
	<polygon fill="#478411" points="168.373,1 191.743,14.492 167.756,28.341 167.756,1 	"/>
	<polygon fill="#57931A" points="191.743,14.492 167.756,28.341 191.743,42.189 	"/>
	<polygon fill="#6BA525" points="167.756,56.037 191.743,42.189 167.756,28.341 	"/>
	<polygon fill="#6EA628" points="191.743,42.189 167.756,56.037 191.743,69.886 	"/>
	<polygon fill="#79AF2F" points="167.756,83.734 191.743,69.886 167.756,56.037 	"/>
	<polygon fill="#82B336" points="191.743,69.886 167.756,83.734 191.743,97.583 	"/>
	<polygon fill="#91BD43" points="167.756,111.431 191.743,97.583 167.756,83.734 	"/>
	<polygon fill="#A1CB53" points="191.743,97.583 167.756,111.431 191.743,125.279 	"/>
	<polygon fill="#ACD560" points="167.756,139.127 191.743,125.279 167.756,111.431 	"/>
	<polygon fill="#C0E27A" points="191.743,125.279 167.756,139.127 191.743,152.976 	"/>
	<polygon fill="#BEE17C" points="167.756,166.824 191.743,152.976 167.756,139.127 	"/>
	<polygon fill="#CCE797" points="191.743,152.976 167.756,166.824 191.743,180.672 	"/>
	<polygon fill="#D9F0AF" points="167.756,194.521 191.743,180.672 167.756,166.824 	"/>
	<polygon fill="#DCF1B5" points="191.743,180.672 167.756,194.521 191.743,208.369 	"/>
	<polygon fill="#DBF2B4" points="167.756,222.217 191.743,208.369 167.756,194.521 	"/>
	<polygon fill="#E5F5CC" points="191.743,208.369 167.756,222.217 191.743,236.066 	"/>
	<polygon fill="#ECF7DA" points="167.756,249.914 191.743,236.066 167.756,222.217 	"/>
	<polygon fill="#F3FBE9" points="191.743,236.066 167.756,249.914 191.743,263.764 	"/>
	<polygon fill="#F2F9E9" points="167.756,277.611 191.743,263.764 167.756,249.914 	"/>
	<polygon fill="#F0F9E7" points="191.743,263.764 167.756,277.611 191.743,291.459 	"/>
	<polygon fill="#EFF8E4" points="167.756,305.309 191.743,291.459 167.756,277.611 	"/>
	<polygon fill="#EFF7E3" points="191.743,291.459 167.756,305.309 191.743,319.156 	"/>
	<polygon fill="#F3FAED" points="167.756,333.004 191.743,319.156 167.756,305.309 	"/>
	<polygon fill="#448010" points="215.112,1 191.743,14.492 191.743,1 	"/>
	<polygon fill="#4C8813" points="215.729,1 215.729,28.341 191.743,14.492 215.112,1 	"/>
	<polygon fill="#59951B" points="191.743,42.189 215.729,28.341 191.743,14.492 	"/>
	<polygon fill="#71A72B" points="215.729,28.341 191.743,42.189 215.729,56.037 	"/>
	<polygon fill="#75AB2D" points="191.743,69.886 215.729,56.037 191.743,42.189 	"/>
	<polygon fill="#8EBE41" points="215.729,56.037 191.743,69.886 215.729,83.734 	"/>
	<polygon fill="#8EBF41" points="191.743,97.583 215.729,83.734 191.743,69.886 	"/>
	<polygon fill="#A7D159" points="215.729,83.734 191.743,97.583 215.729,111.431 	"/>
	<polygon fill="#ADD45E" points="191.743,125.279 215.729,111.431 191.743,97.583 	"/>
	<polygon fill="#BFE177" points="215.729,111.431 191.743,125.279 215.729,139.127 	"/>
	<polygon fill="#D0EC93" points="191.743,152.976 215.729,139.127 191.743,125.279 	"/>
	<polygon fill="#D2ED9D" points="215.729,139.127 191.743,152.976 215.729,166.824 	"/>
	<polygon fill="#E1F3BF" points="191.743,180.672 215.729,166.824 191.743,152.976 	"/>
	<polygon fill="#EDF9DA" points="215.729,166.824 191.743,180.672 215.729,194.521 	"/>
	<polygon fill="#EBF7D5" points="191.743,208.369 215.729,194.521 191.743,180.672 	"/>
	<polygon fill="#F0FBDF" points="215.729,194.521 191.743,208.369 215.729,222.217 	"/>
	<polygon fill="#EEF9DD" points="191.743,236.066 215.729,222.217 191.743,208.369 	"/>
	<polygon fill="#EFF9DD" points="215.729,222.217 191.743,236.066 215.729,249.914 	"/>
	<polygon fill="#F0FAE2" points="191.743,263.764 215.729,249.914 191.743,236.066 	"/>
	<polygon fill="#F3F9E9" points="215.729,249.914 191.743,263.764 215.729,277.611 	"/>
	<polygon fill="#F6FAF2" points="191.743,291.459 215.729,277.611 191.743,263.764 	"/>
	<polygon fill="#F7FCF5" points="215.729,277.611 191.743,291.459 215.729,305.309 	"/>
	<polygon fill="#F6FCF3" points="191.743,319.156 215.729,305.309 191.743,291.459 	"/>
	<polygon fill="#F8FCF6" points="215.729,305.309 191.743,319.156 215.729,333.004 	"/>
	<polygon fill="#488611" points="239.715,1 239.715,14.492 216.346,1 	"/>
	<polygon fill="#4F8D15" points="216.346,1 239.715,14.492 215.729,28.341 215.729,1 	"/>
	<polygon fill="#589619" points="239.715,14.492 215.729,28.341 239.715,42.189 	"/>
	<polygon fill="#72AB2A" points="215.729,56.037 239.715,42.189 215.729,28.341 	"/>
	<polygon fill="#86B937" points="239.715,42.189 215.729,56.037 239.715,69.886 	"/>
	<polygon fill="#9DCA4D" points="215.729,83.734 239.715,69.886 215.729,56.037 	"/>
	<polygon fill="#A7D058" points="239.715,69.886 215.729,83.734 239.715,97.583 	"/>
	<polygon fill="#A3CF56" points="215.729,111.431 239.715,97.583 215.729,83.734 	"/>
	<polygon fill="#B0D867" points="239.715,97.583 215.729,111.431 239.715,125.279 	"/>
	<polygon fill="#C3E486" points="215.729,139.127 239.715,125.279 215.729,111.431 	"/>
	<polygon fill="#D4EFA4" points="239.715,125.279 215.729,139.127 239.715,152.976 	"/>
	<polygon fill="#D1EB97" points="215.729,166.824 239.715,152.976 215.729,139.127 	"/>
	<polygon fill="#D8F2A7" points="239.715,152.976 215.729,166.824 239.715,180.672 	"/>
	<polygon fill="#E6F5C9" points="215.729,194.521 239.715,180.672 215.729,166.824 	"/>
	<polygon fill="#DDF1B4" points="239.715,180.672 215.729,194.521 239.715,208.369 	"/>
	<polygon fill="#E8F8CC" points="215.729,222.217 239.715,208.369 215.729,194.521 	"/>
	<polygon fill="#E9F9D0" points="239.715,208.369 215.729,222.217 239.715,236.066 	"/>
	<polygon fill="#F0FADF" points="215.729,249.914 239.715,236.066 215.729,222.217 	"/>
	<polygon fill="#F4FCEA" points="239.715,236.066 215.729,249.914 239.715,263.764 	"/>
	<polygon fill="#F3F9EA" points="215.729,277.611 239.715,263.764 215.729,249.914 	"/>
	<polygon fill="#F5FAF1" points="239.715,263.764 215.729,277.611 239.715,291.459 	"/>
	<polygon fill="#F7FCF4" points="215.729,305.309 239.715,291.459 215.729,277.611 	"/>
	<polygon fill="#F8FDF5" points="239.715,291.459 215.729,305.309 239.715,319.156 	"/>
	<polygon fill="#FAFDF7" points="215.729,333.004 239.715,319.156 215.729,305.309 	"/>
	<polygon fill="#4E8C15" points="263.084,1 239.715,14.492 239.715,1 	"/>
	<polygon fill="#59951A" points="263.702,1 263.702,28.341 239.715,14.492 263.084,1 	"/>
	<polygon fill="#639E1E" points="239.715,42.189 263.702,28.341 239.715,14.492 	"/>
	<polygon fill="#7BB32C" points="263.702,28.341 239.715,42.189 263.702,56.037 	"/>
	<polygon fill="#82B934" points="239.715,69.886 263.702,56.037 239.715,42.189 	"/>
	<polygon fill="#92C440" points="263.702,56.037 239.715,69.886 263.702,83.734 	"/>
	<polygon fill="#9FCC4E" points="239.715,97.583 263.702,83.734 239.715,69.886 	"/>
	<polygon fill="#B8DC70" points="263.702,83.734 239.715,97.583 263.702,111.431 	"/>
	<polygon fill="#C7E78A" points="239.715,125.279 263.702,111.431 239.715,97.583 	"/>
	<polygon fill="#CEEA9E" points="263.702,111.431 239.715,125.279 263.702,139.127 	"/>
	<polygon fill="#D3EE9B" points="239.715,152.976 263.702,139.127 239.715,125.279 	"/>
	<polygon fill="#C9EB85" points="263.702,139.127 239.715,152.976 263.702,166.824 	"/>
	<polygon fill="#CEEE8F" points="239.715,180.672 263.702,166.824 239.715,152.976 	"/>
	<polygon fill="#E2F4BD" points="263.702,166.824 239.715,180.672 263.702,194.521 	"/>
	<polygon fill="#DAF0AF" points="239.715,208.369 263.702,194.521 239.715,180.672 	"/>
	<polygon fill="#E3F4C4" points="263.702,194.521 239.715,208.369 263.702,222.217 	"/>
	<polygon fill="#E5F7CA" points="239.715,236.066 263.702,222.217 239.715,208.369 	"/>
	<polygon fill="#EBF9D7" points="263.702,222.217 239.715,236.066 263.702,249.914 	"/>
	<polygon fill="#F4FCE6" points="239.715,263.764 263.702,249.914 239.715,236.066 	"/>
	<polygon fill="#F8FBF4" points="263.702,249.914 239.715,263.764 263.702,277.611 	"/>
	<polygon fill="#F8FDF5" points="239.715,291.459 263.702,277.611 239.715,263.764 	"/>
	<polygon fill="#F9FDF5" points="263.702,277.611 239.715,291.459 263.702,305.309 	"/>
	<polygon fill="#F7FCF4" points="239.715,319.156 263.702,305.309 239.715,291.459 	"/>
	<polygon fill="#F8FCF5" points="263.702,305.309 239.715,319.156 263.702,333.004 	"/>
	<polygon fill="#559018" points="287.688,1 287.688,14.492 264.318,1 	"/>
	<polygon fill="#609B1A" points="264.318,1 287.688,14.492 263.702,28.341 263.702,1 	"/>
	<polygon fill="#65A120" points="287.688,14.492 263.702,28.341 287.688,42.189 	"/>
	<polygon fill="#81B832" points="263.702,56.037 287.688,42.189 263.702,28.341 	"/>
	<polygon fill="#ADD959" points="287.688,42.189 263.702,56.037 287.688,69.886 	"/>
	<polygon fill="#A8D354" points="263.702,83.734 287.688,69.886 263.702,56.037 	"/>
	<polygon fill="#CAEA83" points="287.688,69.886 263.702,83.734 287.688,97.583 	"/>
	<polygon fill="#AED95C" points="263.702,111.431 287.688,97.583 263.702,83.734 	"/>
	<polygon fill="#C1E57A" points="287.688,97.583 263.702,111.431 287.688,125.279 	"/>
	<polygon fill="#C4E583" points="263.702,139.127 287.688,125.279 263.702,111.431 	"/>
	<polygon fill="#CAEA89" points="287.688,125.279 263.702,139.127 287.688,152.976 	"/>
	<polygon fill="#D1EE9F" points="263.702,166.824 287.688,152.976 263.702,139.127 	"/>
	<polygon fill="#D0EB9B" points="287.688,152.976 263.702,166.824 287.688,180.672 	"/>
	<polygon fill="#DCF2B2" points="263.702,194.521 287.688,180.672 263.702,166.824 	"/>
	<polygon fill="#E4F6C5" points="287.688,180.672 263.702,194.521 287.688,208.369 	"/>
	<polygon fill="#ECF8D4" points="263.702,222.217 287.688,208.369 263.702,194.521 	"/>
	<polygon fill="#EEFBD6" points="287.688,208.369 263.702,222.217 287.688,236.066 	"/>
	<polygon fill="#F1FDDD" points="263.702,249.914 287.688,236.066 263.702,222.217 	"/>
	<polygon fill="#F5FDEA" points="287.688,236.066 263.702,249.914 287.688,263.764 	"/>
	<polygon fill="#F9FDF3" points="263.702,277.611 287.688,263.764 263.702,249.914 	"/>
	<polygon fill="#F6FDEC" points="287.688,263.764 263.702,277.611 287.688,291.459 	"/>
	<polygon fill="#F6FBF0" points="263.702,305.309 287.688,291.459 263.702,277.611 	"/>
	<polygon fill="#F6FDEF" points="287.688,291.459 263.702,305.309 287.688,319.156 	"/>
	<polygon fill="#F8FDF4" points="263.702,333.004 287.688,319.156 263.702,305.309 	"/>
	<polygon fill="#538F18" points="311.057,1 287.688,14.492 287.688,1 	"/>
	<polygon fill="#5F9A1D" points="311.674,1 311.674,28.341 287.688,14.492 311.057,1 	"/>
	<polygon fill="#649E21" points="287.688,42.189 311.674,28.341 287.688,14.492 	"/>
	<polygon fill="#81B731" points="311.674,28.341 287.688,42.189 311.674,56.037 	"/>
	<polygon fill="#9ECD46" points="287.688,69.886 311.674,56.037 287.688,42.189 	"/>
	<polygon fill="#97C941" points="311.674,56.037 287.688,69.886 311.674,83.734 	"/>
	<polygon fill="#B4DD61" points="287.688,97.583 311.674,83.734 287.688,69.886 	"/>
	<polygon fill="#B2DB60" points="311.674,83.734 287.688,97.583 311.674,111.431 	"/>
	<polygon fill="#D5EEA5" points="287.688,125.279 311.674,111.431 287.688,97.583 	"/>
	<polygon fill="#D7EEAE" points="311.674,111.431 287.688,125.279 311.674,139.127 	"/>
	<polygon fill="#CAE78E" points="287.688,152.976 311.674,139.127 287.688,125.279 	"/>
	<polygon fill="#C8E88B" points="311.674,139.127 287.688,152.976 311.674,166.824 	"/>
	<polygon fill="#CDED92" points="287.688,180.672 311.674,166.824 287.688,152.976 	"/>
	<polygon fill="#DAF1A5" points="311.674,166.824 287.688,180.672 311.674,194.521 	"/>
	<polygon fill="#E5F8C2" points="287.688,208.369 311.674,194.521 287.688,180.672 	"/>
	<polygon fill="#E0F7B7" points="311.674,194.521 287.688,208.369 311.674,222.217 	"/>
	<polygon fill="#E7F8C8" points="287.688,236.066 311.674,222.217 287.688,208.369 	"/>
	<polygon fill="#EEFAD8" points="311.674,222.217 287.688,236.066 311.674,249.914 	"/>
	<polygon fill="#F5FBE7" points="287.688,263.764 311.674,249.914 287.688,236.066 	"/>
	<polygon fill="#F3FEE5" points="311.674,249.914 287.688,263.764 311.674,277.611 	"/>
	<polygon fill="#F4FDEB" points="287.688,291.459 311.674,277.611 287.688,263.764 	"/>
	<polygon fill="#F8FDF5" points="311.674,277.611 287.688,291.459 311.674,305.309 	"/>
	<polygon fill="#F8FEF4" points="287.688,319.156 311.674,305.309 287.688,291.459 	"/>
	<polygon fill="#F9FEF4" points="311.674,305.309 287.688,319.156 311.674,333.004 	"/>
	<polygon fill="#4E8815" points="335.661,1 335.661,14.492 312.292,1 	"/>
	<polygon fill="#649E21" points="312.292,1 335.661,14.492 311.674,28.341 311.674,1 	"/>
	<polygon fill="#6DA62A" points="335.661,14.492 311.674,28.341 335.661,42.189 	"/>
	<polygon fill="#7DB32C" points="311.674,56.037 335.661,42.189 311.674,28.341 	"/>
	<polygon fill="#86BB34" points="335.661,42.189 311.674,56.037 335.661,69.886 	"/>
	<polygon fill="#89BE37" points="311.674,83.734 335.661,69.886 311.674,56.037 	"/>
	<polygon fill="#9BCB48" points="335.661,69.886 311.674,83.734 335.661,97.583 	"/>
	<polygon fill="#ABD75D" points="311.674,111.431 335.661,97.583 311.674,83.734 	"/>
	<polygon fill="#C8E68F" points="335.661,97.583 311.674,111.431 335.661,125.279 	"/>
	<polygon fill="#CEED98" points="311.674,139.127 335.661,125.279 311.674,111.431 	"/>
	<polygon fill="#CEEE91" points="335.661,125.279 311.674,139.127 335.661,152.976 	"/>
	<polygon fill="#CCEB8B" points="311.674,166.824 335.661,152.976 311.674,139.127 	"/>
	<polygon fill="#D1F090" points="335.661,152.976 311.674,166.824 335.661,180.672 	"/>
	<polygon fill="#D3F190" points="311.674,194.521 335.661,180.672 311.674,166.824 	"/>
	<polygon fill="#D9F59F" points="335.661,180.672 311.674,194.521 335.661,208.369 	"/>
	<polygon fill="#D6F497" points="311.674,222.217 335.661,208.369 311.674,194.521 	"/>
	<polygon fill="#E3F9BB" points="335.661,208.369 311.674,222.217 335.661,236.066 	"/>
	<polygon fill="#E9F8CD" points="311.674,249.914 335.661,236.066 311.674,222.217 	"/>
	<polygon fill="#F2FCE1" points="335.661,236.066 311.674,249.914 335.661,263.764 	"/>
	<polygon fill="#F1FCDE" points="311.674,277.611 335.661,263.764 311.674,249.914 	"/>
	<polygon fill="#F3FBE7" points="335.661,263.764 311.674,277.611 335.661,291.459 	"/>
	<polygon fill="#F9FEF2" points="311.674,305.309 335.661,291.459 311.674,277.611 	"/>
	<polygon fill="#F3FCEA" points="335.661,291.459 311.674,305.309 335.661,319.156 	"/>
	<polygon fill="#F5FDEA" points="311.674,333.004 335.661,319.156 311.674,305.309 	"/>
	<polygon fill="#4B8413" points="359.03,1 335.661,14.492 335.661,1 	"/>
	<polygon fill="#5C9720" points="359.647,1 359.647,28.341 335.661,14.492 359.03,1 	"/>
	<polygon fill="#6FA92C" points="335.661,42.189 359.647,28.341 335.661,14.492 	"/>
	<polygon fill="#69A322" points="359.647,28.341 335.661,42.189 359.647,56.037 	"/>
	<polygon fill="#7AB12D" points="335.661,69.886 359.647,56.037 335.661,42.189 	"/>
	<polygon fill="#89C036" points="359.647,56.037 335.661,69.886 359.647,83.734 	"/>
	<polygon fill="#9ACB42" points="335.661,97.583 359.647,83.734 335.661,69.886 	"/>
	<polygon fill="#A2D54A" points="359.647,83.734 335.661,97.583 359.647,111.431 	"/>
	<polygon fill="#B9DF6F" points="335.661,125.279 359.647,111.431 335.661,97.583 	"/>
	<polygon fill="#B5DD6D" points="359.647,111.431 335.661,125.279 359.647,139.127 	"/>
	<polygon fill="#BFE474" points="335.661,152.976 359.647,139.127 335.661,125.279 	"/>
	<polygon fill="#CAEA93" points="359.647,139.127 335.661,152.976 359.647,166.824 	"/>
	<polygon fill="#DDF6B4" points="335.661,180.672 359.647,166.824 335.661,152.976 	"/>
	<polygon fill="#E7F6C8" points="359.647,166.824 335.661,180.672 359.647,194.521 	"/>
	<polygon fill="#E5F7C1" points="335.661,208.369 359.647,194.521 335.661,180.672 	"/>
	<polygon fill="#E1F8B7" points="359.647,194.521 335.661,208.369 359.647,222.217 	"/>
	<polygon fill="#E3F6BC" points="335.661,236.066 359.647,222.217 335.661,208.369 	"/>
	<polygon fill="#E9F9CA" points="359.647,222.217 335.661,236.066 359.647,249.914 	"/>
	<polygon fill="#EDFBD9" points="335.661,263.764 359.647,249.914 335.661,236.066 	"/>
	<polygon fill="#F0FBDB" points="359.647,249.914 335.661,263.764 359.647,277.611 	"/>
	<polygon fill="#F4FDE6" points="335.661,291.459 359.647,277.611 335.661,263.764 	"/>
	<polygon fill="#EFFBDB" points="359.647,277.611 335.661,291.459 359.647,305.309 	"/>
	<polygon fill="#EEF9DA" points="335.661,319.156 359.647,305.309 335.661,291.459 	"/>
	<polygon fill="#EBF9D7" points="359.647,305.309 335.661,319.156 359.647,333.004 	"/>
	<polygon fill="#407B0E" points="383.633,1 383.633,14.492 360.264,1 	"/>
	<polygon fill="#4D8815" points="360.264,1 383.633,14.492 359.647,28.341 359.647,1 	"/>
	<polygon fill="#518F18" points="383.633,14.492 359.647,28.341 383.633,42.189 	"/>
	<polygon fill="#649F21" points="359.647,56.037 383.633,42.189 359.647,28.341 	"/>
	<polygon fill="#71AB2B" points="383.633,42.189 359.647,56.037 383.633,69.886 	"/>
	<polygon fill="#85BC37" points="359.647,83.734 383.633,69.886 359.647,56.037 	"/>
	<polygon fill="#98CA46" points="383.633,69.886 359.647,83.734 383.633,97.583 	"/>
	<polygon fill="#A7D751" points="359.647,111.431 383.633,97.583 359.647,83.734 	"/>
	<polygon fill="#AFDD5A" points="383.633,97.583 359.647,111.431 383.633,125.279 	"/>
	<polygon fill="#B9E072" points="359.647,139.127 383.633,125.279 359.647,111.431 	"/>
	<polygon fill="#B7E269" points="383.633,125.279 359.647,139.127 383.633,152.976 	"/>
	<polygon fill="#BDE075" points="359.647,166.824 383.633,152.976 359.647,139.127 	"/>
	<polygon fill="#C9E988" points="383.633,152.976 359.647,166.824 383.633,180.672 	"/>
	<polygon fill="#DAF3AB" points="359.647,194.521 383.633,180.672 359.647,166.824 	"/>
	<polygon fill="#D1F391" points="383.633,180.672 359.647,194.521 383.633,208.369 	"/>
	<polygon fill="#E1F8B2" points="359.647,222.217 383.633,208.369 359.647,194.521 	"/>
	<polygon fill="#E2F9B9" points="383.633,208.369 359.647,222.217 383.633,236.066 	"/>
	<polygon fill="#E3F8B9" points="359.647,249.914 383.633,236.066 359.647,222.217 	"/>
	<polygon fill="#D4F394" points="383.633,236.066 359.647,249.914 383.633,263.764 	"/>
	<polygon fill="#E5F7C1" points="359.647,277.611 383.633,263.764 359.647,249.914 	"/>
	<polygon fill="#E8F9C9" points="383.633,263.764 359.647,277.611 383.633,291.459 	"/>
	<polygon fill="#EEFBDA" points="359.647,305.309 383.633,291.459 359.647,277.611 	"/>
	<polygon fill="#F0FBDF" points="383.633,291.459 359.647,305.309 383.633,319.156 	"/>
	<polygon fill="#F0FBE0" points="359.647,333.004 383.633,319.156 359.647,305.309 	"/>
	<polygon fill="#EEF9DC" points="383.633,319.156 359.647,333.004 383.633,346.854 	"/>
	<polygon fill="#3E790E" points="407.002,1 383.633,14.492 383.633,1 	"/>
	<polygon fill="#478213" points="407.62,1 407.62,28.341 383.633,14.492 407.002,1 	"/>
	<polygon fill="#4E8C16" points="383.633,42.189 407.62,28.341 383.633,14.492 	"/>
	<polygon fill="#59951B" points="407.62,28.341 383.633,42.189 407.62,56.037 	"/>
	<polygon fill="#69A427" points="383.633,69.886 407.62,56.037 383.633,42.189 	"/>
	<polygon fill="#75AF2D" points="407.62,56.037 383.633,69.886 407.62,83.734 	"/>
	<polygon fill="#9ACE4B" points="383.633,97.583 407.62,83.734 383.633,69.886 	"/>
	<polygon fill="#9ACF48" points="407.62,83.734 383.633,97.583 407.62,111.431 	"/>
	<polygon fill="#A9D754" points="383.633,125.279 407.62,111.431 383.633,97.583 	"/>
	<polygon fill="#C3E677" points="407.62,111.431 383.633,125.279 407.62,139.127 	"/>
	<polygon fill="#C9E986" points="383.633,152.976 407.62,139.127 383.633,125.279 	"/>
	<polygon fill="#C4E87C" points="407.62,139.127 383.633,152.976 407.62,166.824 	"/>
	<polygon fill="#C7EB80" points="383.633,180.672 407.62,166.824 383.633,152.976 	"/>
	<polygon fill="#C9ED7C" points="407.62,166.824 383.633,180.672 407.62,194.521 	"/>
	<polygon fill="#CBEF83" points="383.633,208.369 407.62,194.521 383.633,180.672 	"/>
	<polygon fill="#D3F394" points="407.62,194.521 383.633,208.369 407.62,222.217 	"/>
	<polygon fill="#D9F2A1" points="383.633,236.066 407.62,222.217 383.633,208.369 	"/>
	<polygon fill="#D2F390" points="407.62,222.217 383.633,236.066 407.62,249.914 	"/>
	<polygon fill="#CFF08E" points="383.633,263.764 407.62,249.914 383.633,236.066 	"/>
	<polygon fill="#CFF089" points="407.62,249.914 383.633,263.764 407.62,277.611 	"/>
	<polygon fill="#DCF5AE" points="383.633,291.459 407.62,277.611 383.633,263.764 	"/>
	<polygon fill="#DFF7B3" points="407.62,277.611 383.633,291.459 407.62,305.309 	"/>
	<polygon fill="#EAFACD" points="383.633,319.156 407.62,305.309 383.633,291.459 	"/>
	<polygon fill="#EAF9D1" points="407.62,305.309 383.633,319.156 407.62,333.004 	"/>
	<polygon fill="#EBF9D6" points="383.633,346.854 407.62,333.004 383.633,319.156 	"/>
	<polygon fill="#EBF9D6" points="407.62,333.004 383.633,346.854 407.62,360.701 	"/>
	<line fill="none" x1="407.62" y1="360.701" x2="383.633" y2="346.854"/>
	<path fill="#F0FAE2" d="M383.633,374.549"/>
	<polygon fill="#35710B" points="431.606,1 431.606,14.492 408.237,1 	"/>
	<polygon fill="#427F10" points="408.237,1 431.606,14.492 407.62,28.341 407.62,1 	"/>
	<polygon fill="#4C8A17" points="431.606,14.492 407.62,28.341 431.606,42.189 	"/>
	<polygon fill="#5A9820" points="407.62,56.037 431.606,42.189 407.62,28.341 	"/>
	<polygon fill="#5E9A21" points="431.606,42.189 407.62,56.037 431.606,69.886 	"/>
	<polygon fill="#75AF2E" points="407.62,83.734 431.606,69.886 407.62,56.037 	"/>
	<polygon fill="#98C946" points="431.606,69.886 407.62,83.734 431.606,97.583 	"/>
	<polygon fill="#94CA41" points="407.62,111.431 431.606,97.583 407.62,83.734 	"/>
	<polygon fill="#99CF41" points="431.606,97.583 407.62,111.431 431.606,125.279 	"/>
	<polygon fill="#AADB51" points="407.62,139.127 431.606,125.279 407.62,111.431 	"/>
	<polygon fill="#8CC933" points="431.606,125.279 407.62,139.127 431.606,152.976 	"/>
	<polygon fill="#93CD35" points="407.62,166.824 431.606,152.976 407.62,139.127 	"/>
	<polygon fill="#A1D83F" points="431.606,152.976 407.62,166.824 431.606,180.672 	"/>
	<polygon fill="#B8E561" points="407.62,194.521 431.606,180.672 407.62,166.824 	"/>
	<polygon fill="#ACDF4F" points="431.606,180.672 407.62,194.521 431.606,208.369 	"/>
	<polygon fill="#C8EE85" points="407.62,222.217 431.606,208.369 407.62,194.521 	"/>
	<polygon fill="#B5E25A" points="431.606,208.369 407.62,222.217 431.606,236.066 	"/>
	<polygon fill="#BDEB63" points="407.62,249.914 431.606,236.066 407.62,222.217 	"/>
	<polygon fill="#C7EF77" points="431.606,236.066 407.62,249.914 431.606,263.764 	"/>
	<polygon fill="#D5F597" points="407.62,277.611 431.606,263.764 407.62,249.914 	"/>
	<polygon fill="#D6F399" points="431.606,263.764 407.62,277.611 431.606,291.459 	"/>
	<polygon fill="#DEF5AE" points="407.62,305.309 431.606,291.459 407.62,277.611 	"/>
	<polygon fill="#E3F8BC" points="431.606,291.459 407.62,305.309 431.606,319.156 	"/>
	<polygon fill="#DFF6BA" points="407.62,333.004 431.606,319.156 407.62,305.309 	"/>
	<polygon fill="#D9F4AE" points="431.606,319.156 407.62,333.004 431.606,346.854 	"/>
	<polygon fill="#E5F4C8" points="407.62,360.701 431.606,346.854 407.62,333.004 	"/>
	<polygon fill="#ECF9D9" points="431.606,346.854 407.62,360.701 431.606,374.549 	"/>
	<polygon fill="#2D6705" points="454.975,1 431.606,14.492 431.606,1 	"/>
	<polygon fill="#306D08" points="455.592,1 455.592,28.341 431.606,14.492 454.975,1 	"/>
	<polygon fill="#38760B" points="431.606,42.189 455.592,28.341 431.606,14.492 	"/>
	<polygon fill="#3C7E0E" points="455.592,28.341 431.606,42.189 455.592,56.037 	"/>
	<polygon fill="#458912" points="431.606,69.886 455.592,56.037 431.606,42.189 	"/>
	<polygon fill="#4A8C14" points="455.592,56.037 431.606,69.886 455.592,83.734 	"/>
	<polygon fill="#74B22F" points="431.606,97.583 455.592,83.734 431.606,69.886 	"/>
	<polygon fill="#68A825" points="455.592,83.734 431.606,97.583 455.592,111.431 	"/>
	<polygon fill="#7FB92C" points="431.606,125.279 455.592,111.431 431.606,97.583 	"/>
	<polygon fill="#75B526" points="455.592,111.431 431.606,125.279 455.592,139.127 	"/>
	<polygon fill="#90CA38" points="431.606,152.976 455.592,139.127 431.606,125.279 	"/>
	<polygon fill="#A5D750" points="455.592,139.127 431.606,152.976 455.592,166.824 	"/>
	<polygon fill="#B4E45A" points="431.606,180.672 455.592,166.824 431.606,152.976 	"/>
	<polygon fill="#A4DB41" points="455.592,166.824 431.606,180.672 455.592,194.521 	"/>
	<polygon fill="#9FD639" points="431.606,208.369 455.592,194.521 431.606,180.672 	"/>
	<polygon fill="#A4DB3E" points="455.592,194.521 431.606,208.369 455.592,222.217 	"/>
	<polygon fill="#AFE14D" points="431.606,236.066 455.592,222.217 431.606,208.369 	"/>
	<polygon fill="#B5E454" points="455.592,222.217 431.606,236.066 455.592,249.914 	"/>
	<polygon fill="#BFE865" points="431.606,263.764 455.592,249.914 431.606,236.066 	"/>
	<polygon fill="#D0F289" points="455.592,249.914 431.606,263.764 455.592,277.611 	"/>
	<polygon fill="#D9F69C" points="431.606,291.459 455.592,277.611 431.606,263.764 	"/>
	<polygon fill="#DDF8A8" points="455.592,277.611 431.606,291.459 455.592,305.309 	"/>
	<polygon fill="#D3F397" points="431.606,319.156 455.592,305.309 431.606,291.459 	"/>
	<polygon fill="#D4F397" points="455.592,305.309 431.606,319.156 455.592,333.004 	"/>
	<polygon fill="#CAEE87" points="431.606,346.854 455.592,333.004 431.606,319.156 	"/>
	<polygon fill="#D6F3A1" points="455.592,333.004 431.606,346.854 455.592,360.701 	"/>
	<polygon fill="#E8F8CB" points="431.606,374.549 455.592,360.701 431.606,346.854 	"/>
	<polygon fill="#EDF9D9" points="455.592,360.701 431.606,374.549 455.592,388.396 	"/>
	<polygon fill="#2A6405" points="479.579,1 479.579,14.492 456.208,1 	"/>
	<polygon fill="#33700C" points="456.208,1 479.579,14.492 455.592,28.341 455.592,1 	"/>
	<polygon fill="#387810" points="479.579,14.492 455.592,28.341 479.579,42.189 	"/>
	<polygon fill="#3D7D0E" points="455.592,56.037 479.579,42.189 455.592,28.341 	"/>
	<polygon fill="#3B7D0D" points="479.579,42.189 455.592,56.037 479.579,69.886 	"/>
	<polygon fill="#42850E" points="455.592,83.734 479.579,69.886 455.592,56.037 	"/>
	<polygon fill="#438910" points="479.579,69.886 455.592,83.734 479.579,97.583 	"/>
	<polygon fill="#54981B" points="455.592,111.431 479.579,97.583 455.592,83.734 	"/>
	<polygon fill="#62A221" points="479.579,97.583 455.592,111.431 479.579,125.279 	"/>
	<polygon fill="#5CA11D" points="455.592,139.127 479.579,125.279 455.592,111.431 	"/>
	<polygon fill="#5CA11B" points="479.579,125.279 455.592,139.127 479.579,152.976 	"/>
	<polygon fill="#6FB021" points="455.592,166.824 479.579,152.976 455.592,139.127 	"/>
	<polygon fill="#72B325" points="479.579,152.976 455.592,166.824 479.579,180.672 	"/>
	<polygon fill="#91C933" points="455.592,194.521 479.579,180.672 455.592,166.824 	"/>
	<polygon fill="#88C52B" points="479.579,180.672 455.592,194.521 479.579,208.369 	"/>
	<polygon fill="#96D233" points="455.592,222.217 479.579,208.369 455.592,194.521 	"/>
	<polygon fill="#91CD2B" points="479.579,208.369 455.592,222.217 479.579,236.066 	"/>
	<polygon fill="#A1D739" points="455.592,249.914 479.579,236.066 455.592,222.217 	"/>
	<polygon fill="#A4D93F" points="479.579,236.066 455.592,249.914 479.579,263.764 	"/>
	<polygon fill="#CEF285" points="455.592,277.611 479.579,263.764 455.592,249.914 	"/>
	<polygon fill="#C9F27C" points="479.579,263.764 455.592,277.611 479.579,291.459 	"/>
	<polygon fill="#DBF5A5" points="455.592,305.309 479.579,291.459 455.592,277.611 	"/>
	<polygon fill="#D7F59C" points="479.579,291.459 455.592,305.309 479.579,319.156 	"/>
	<polygon fill="#DAF4A5" points="455.592,333.004 479.579,319.156 455.592,305.309 	"/>
	<polygon fill="#D5F29C" points="479.579,319.156 455.592,333.004 479.579,346.854 	"/>
	<polygon fill="#D8F4A6" points="455.592,360.701 479.579,346.854 455.592,333.004 	"/>
	<polygon fill="#D7F1A7" points="479.579,346.854 455.592,360.701 479.579,374.549 	"/>
	<polygon fill="#E0F5BF" points="455.592,388.396 479.579,374.549 455.592,360.701 	"/>
	<polygon fill="#DCF4B9" points="479.579,374.549 455.592,388.396 479.579,402.246 	"/>
	<polygon fill="#296404" points="502.948,1 479.579,14.492 479.579,1 	"/>
	<polygon fill="#2F6B09" points="503.565,1 503.565,28.341 479.579,14.492 502.948,1 	"/>
	<polygon fill="#34740C" points="479.579,42.189 503.565,28.341 479.579,14.492 	"/>
	<polygon fill="#35760E" points="503.565,28.341 479.579,42.189 503.565,56.037 	"/>
	<polygon fill="#34760C" points="479.579,69.886 503.565,56.037 479.579,42.189 	"/>
	<polygon fill="#34780C" points="503.565,56.037 479.579,69.886 503.565,83.734 	"/>
	<polygon fill="#3C8311" points="479.579,97.583 503.565,83.734 479.579,69.886 	"/>
	<polygon fill="#408613" points="503.565,83.734 479.579,97.583 503.565,111.431 	"/>
	<polygon fill="#529319" points="479.579,125.279 503.565,111.431 479.579,97.583 	"/>
	<polygon fill="#53981A" points="503.565,111.431 479.579,125.279 503.565,139.127 	"/>
	<polygon fill="#569C1A" points="479.579,152.976 503.565,139.127 479.579,125.279 	"/>
	<polygon fill="#579D1B" points="503.565,139.127 479.579,152.976 503.565,166.824 	"/>
	<polygon fill="#6AA925" points="479.579,180.672 503.565,166.824 479.579,152.976 	"/>
	<polygon fill="#7FB72B" points="503.565,166.824 479.579,180.672 503.565,194.521 	"/>
	<polygon fill="#87C22B" points="479.579,208.369 503.565,194.521 479.579,180.672 	"/>
	<polygon fill="#84C126" points="503.565,194.521 479.579,208.369 503.565,222.217 	"/>
	<polygon fill="#86C323" points="479.579,236.066 503.565,222.217 479.579,208.369 	"/>
	<polygon fill="#8AC624" points="503.565,222.217 479.579,236.066 503.565,249.914 	"/>
	<polygon fill="#8BCA25" points="479.579,263.764 503.565,249.914 479.579,236.066 	"/>
	<polygon fill="#97D631" points="503.565,249.914 479.579,263.764 503.565,277.611 	"/>
	<polygon fill="#B5E754" points="479.579,291.459 503.565,277.611 479.579,263.764 	"/>
	<polygon fill="#B8EA58" points="503.565,277.611 479.579,291.459 503.565,305.309 	"/>
	<polygon fill="#C2F06B" points="479.579,319.156 503.565,305.309 479.579,291.459 	"/>
	<polygon fill="#C1EB6F" points="503.565,305.309 479.579,319.156 503.565,333.004 	"/>
	<polygon fill="#CBED85" points="479.579,346.854 503.565,333.004 479.579,319.156 	"/>
	<polygon fill="#CBEC8A" points="503.565,333.004 479.579,346.854 503.565,360.701 	"/>
	<polygon fill="#CFEE99" points="479.579,374.549 503.565,360.701 479.579,346.854 	"/>
	<polygon fill="#CEEF98" points="503.565,360.701 479.579,374.549 503.565,388.396 	"/>
	<polygon fill="#CBEF97" points="479.579,402.246 503.565,388.396 479.579,374.549 	"/>
	<polygon fill="#DBF1BC" points="503.565,388.396 479.579,402.246 503.565,416.095 	"/>
	<polygon fill="#7D8640" points="503.711,1 503.711,28.255 503.565,28.341 503.565,1 	"/>
	<polygon fill="#808841" points="503.711,28.426 503.711,55.952 503.565,56.037 503.565,28.341 	"/>
	<polygon fill="#828B43" points="503.711,56.123 503.711,83.649 503.565,83.734 503.565,56.037 	"/>
	<polygon fill="#889149" points="503.711,83.819 503.711,111.346 503.565,111.431 503.565,83.734 	"/>
	<polygon fill="#FFFFFF" points="503.711,111.516 503.711,139.042 503.565,139.127 503.565,111.431 	"/>
	<polygon fill="#F4F4F4" points="503.711,139.212 503.711,166.739 503.565,166.824 503.565,139.127 	"/>
	<polygon fill="#D1D1D1" points="503.711,166.909 503.711,194.436 503.565,194.521 503.565,166.824 	"/>
	<polygon fill="#C2C2C2" points="503.711,194.606 503.711,222.132 503.565,222.217 503.565,194.521 	"/>
	<polygon fill="#D8D8D8" points="503.711,222.303 503.711,249.829 503.565,249.914 503.565,222.217 	"/>
	<polygon fill="#D2D2D2" points="503.711,249.999 503.711,277.525 503.565,277.611 503.565,249.914 	"/>
	<polygon fill="#D4D4D4" points="503.711,277.695 503.711,305.223 503.565,305.309 503.565,277.611 	"/>
	<polygon fill="#DDDDDD" points="503.711,305.393 503.711,332.919 503.565,333.004 503.565,305.309 	"/>
	<polygon fill="#CBCBCB" points="503.711,333.09 503.711,360.616 503.565,360.701 503.565,333.004 	"/>
	<polygon fill="#D2D2D2" points="503.711,360.786 503.711,388.313 503.565,388.396 503.565,360.701 	"/>
	<polygon fill="#BABABA" points="503.711,388.482 503.711,416.009 503.565,416.095 503.565,388.396 	"/>
</g>
</svg>
